<svg xmlns="http://www.w3.org/2000/svg" xmlns:xlink="http://www.w3.org/1999/xlink" width="1024" zoomAndPan="magnify" viewBox="0 0 768 767.999994" height="1024" preserveAspectRatio="xMidYMid meet" version="1.0"><defs><clipPath id="4b7c369e4c"><path d="M 32.371094 11.8125 L 735.871094 11.8125 L 735.871094 715.3125 L 32.371094 715.3125 Z M 32.371094 11.8125 " clip-rule="nonzero"/></clipPath></defs><path fill="#333333" d="M 682.574219 22.480469 C 706.140625 22.480469 725.210938 41.59375 725.210938 65.117188 L 725.210938 662.015625 C 725.210938 685.554688 706.15625 704.65625 682.574219 704.65625 L 85.667969 704.65625 C 62.128906 704.65625 43.027344 685.554688 43.027344 662.015625 L 43.027344 65.109375 C 43.027344 41.585938 62.128906 22.472656 85.667969 22.472656 L 682.574219 22.472656 Z M 682.574219 22.480469 " fill-opacity="1" fill-rule="nonzero"/><g clip-path="url(#4b7c369e4c)"><path fill="#333333" d="M 735.871094 65.109375 L 735.871094 662.015625 C 735.871094 691.386719 711.980469 715.3125 682.574219 715.3125 L 85.667969 715.3125 C 56.289062 715.3125 32.371094 691.386719 32.371094 662.015625 L 32.371094 65.109375 C 32.371094 35.703125 56.289062 11.8125 85.667969 11.8125 L 682.578125 11.8125 C 711.980469 11.8125 735.871094 35.703125 735.871094 65.109375 Z M 53.6875 662.015625 C 53.6875 679.644531 68.03125 693.992188 85.660156 693.992188 L 682.574219 693.992188 C 700.203125 693.992188 714.546875 679.644531 714.546875 662.015625 L 714.546875 65.109375 C 714.546875 47.46875 700.203125 33.121094 682.574219 33.121094 L 85.667969 33.121094 C 68.039062 33.121094 53.691406 47.46875 53.691406 65.109375 Z M 53.6875 662.015625 " fill-opacity="1" fill-rule="nonzero"/></g><path fill="#e40017" d="M 517.152344 323.429688 L 382.242188 453.328125 L 251.089844 323.175781 L 281.148438 292.902344 L 382.714844 393.707031 L 487.589844 292.679688 Z M 517.152344 323.429688 " fill-opacity="1" fill-rule="nonzero"/></svg>