<svg xmlns="http://www.w3.org/2000/svg" viewBox="0 0 100 100"><path d="M77.9 66.967v-1.714a5.762 5.762 0 0 0-5.815-5.753l-2.909.045a4.784 4.784 0 0 0-1.633.276 5.891 5.891 0 0 0-4.215 5.568l.021 4.834H52.4V34.048l2.514-2.515h6.856l.014 3.214A5.76 5.76 0 0 0 67.6 40.5l2.91-.045a4.782 4.782 0 0 0 1.632-.276 5.891 5.891 0 0 0 4.215-5.568v-5.846l-.057-5.019v-1.714a5.761 5.761 0 0 0-5.817-5.755l-2.909.045a4.808 4.808 0 0 0-1.633.277 5.889 5.889 0 0 0-4.215 5.567l.02 4.531H54.91l-3.288-3.288a2.951 2.951 0 0 0-2.031-.871 2.784 2.784 0 0 0-2.031.871L44.271 26.7h-6.656l-.035-2.951v-1.714a5.76 5.76 0 0 0-5.816-5.755l-2.909.045a4.808 4.808 0 0 0-1.633.277 5.889 5.889 0 0 0-4.215 5.567l.055 12.581a5.76 5.76 0 0 0 5.818 5.75l2.909-.045a4.784 4.784 0 0 0 1.633-.276 5.891 5.891 0 0 0 4.215-5.568v-3.08h6.633l3.289 3.289v35.4H36.651l-.038-3.254v-1.714A5.76 5.76 0 0 0 30.8 59.5l-2.91.045a4.782 4.782 0 0 0-1.632.276 5.89 5.89 0 0 0-4.215 5.568l.057 12.579a5.762 5.762 0 0 0 5.817 5.755l2.909-.045a4.808 4.808 0 0 0 1.633-.277 5.889 5.889 0 0 0 4.215-5.567v-2.777h26.7l.013 2.911a5.76 5.76 0 0 0 5.813 5.755l2.91-.045a4.807 4.807 0 0 0 1.632-.277 5.889 5.889 0 0 0 4.215-5.567v-5.846zM67 20.219a1.212 1.212 0 0 1 .584-.07l2.91-.046a2.061 2.061 0 0 1 1.978 1.94l.055 12.582a1.862 1.862 0 0 1-1.356 1.908 1.223 1.223 0 0 1-.584.071l-2.909.045a1.934 1.934 0 0 1-1.979-1.94l-.055-12.582A1.863 1.863 0 0 1 67 20.219zM32.455 36.533a1.224 1.224 0 0 1-.584.071l-2.91.045a1.934 1.934 0 0 1-1.978-1.94l-.055-12.582a1.862 1.862 0 0 1 1.356-1.908 1.212 1.212 0 0 1 .584-.07l2.909-.046a2.061 2.061 0 0 1 1.979 1.94l.055 12.582a1.863 1.863 0 0 1-1.356 1.908zm-.967 43.221a1.226 1.226 0 0 1-.584.07l-2.91.046a1.935 1.935 0 0 1-1.979-1.94l-.054-12.582a1.862 1.862 0 0 1 1.356-1.908 1.223 1.223 0 0 1 .584-.071l2.909-.045a2.06 2.06 0 0 1 1.979 1.94l.055 12.581a1.864 1.864 0 0 1-1.356 1.909zm18.1-48.414l-2.225-2.225 2.225-2.224 2.224 2.224zm23.186 48.414a1.224 1.224 0 0 1-.584.07l-2.909.046a1.934 1.934 0 0 1-1.981-1.94l-.055-12.582A1.863 1.863 0 0 1 68.6 63.44a1.224 1.224 0 0 1 .584-.071l2.909-.045a2.06 2.06 0 0 1 1.979 1.94l.055 12.581a1.864 1.864 0 0 1-1.353 1.909z"/></svg>