<svg xmlns="http://www.w3.org/2000/svg" viewBox="0 0 100 100"><path d="M96.33 39.273h-5.67a2.816 2.816 0 0 0-2.76 2.866v2.083h-4.047v-3.349a2.816 2.816 0 0 0-2.753-2.868h-7.319l-4.694-7.2-1.387-.682H56.046v-1.516h8.137a2.816 2.816 0 0 0 2.755-2.866v-5.934a2.815 2.815 0 0 0-2.755-2.866h-28.3a2.815 2.815 0 0 0-2.755 2.866v5.934a2.816 2.816 0 0 0 2.755 2.866h8.082l-.028 1.516H30.8l-1.283.668-7.461 9.981h-5.283a2.816 2.816 0 0 0-2.756 2.866v7h-1.89v-8.5a2.815 2.815 0 0 0-2.754-2.866H3.67a2.816 2.816 0 0 0-2.755 2.867v29.414a2.816 2.816 0 0 0 2.755 2.868h5.7a2.815 2.815 0 0 0 2.754-2.868v-8.432h1.954v7.4a2.816 2.816 0 0 0 2.756 2.866h7.482l8.3 9.783 1.2.55h36.951c.147 0 .3.007.46.013.186.008.4.016.636.016a4.3 4.3 0 0 0 3.664-1.572l8.06-10.722.153-.151h4.133v.233a2.814 2.814 0 0 0 2.754 2.863h5.7a2.815 2.815 0 0 0 2.755-2.867v-29.4a2.816 2.816 0 0 0-2.752-2.86zM46.051 23.607h-8.119V21.94h24.2v1.667H54a2.816 2.816 0 0 0-2.755 2.866v3.65h-2.5l.067-3.65a2.815 2.815 0 0 0-2.761-2.866zM10.077 58.121a2.816 2.816 0 0 0-2.755 2.866v8.434h-1.6V44.273h1.6V52.7l-.007.132.02.23a2.853 2.853 0 0 0 .985 1.928 2.571 2.571 0 0 0 1.841.648h3.877l.019 2.483zM72 78.75c-.171.01-.413 0-.591-.013-.221-.008-.437-.017-.643-.017H35.254l-8.32-9.8-1.228-.528h-6.82V60.856l-.061-8.105v-6.979h4.8l1.283-.667 7.461-9.982H66.1l4.638 7.114 1.333.768h6.98v26.367zm22.278-9.345h-1.6v-.235a2.816 2.816 0 0 0-2.755-2.87h-6.07V49.222h6.1a2.816 2.816 0 0 0 2.755-2.866v-2.083h1.57z"/></svg>