<svg xmlns="http://www.w3.org/2000/svg" viewBox="0 0 100 100"><path d="M71.979 62.217l1.777-.017c4.313 0 7.44-2.769 7.44-6.583s-3.127-6.585-7.435-6.585a10.228 10.228 0 0 0-6.161 2.484 7.53 7.53 0 0 0-3.1 5.5c0 2.374 1.3 5.201 7.479 5.201zm1.782-9.843c2.448 0 4.093 1.3 4.093 3.241s-1.645 3.241-4.093 3.241c-.264 0-.544 0-.833.008-.31.005-.63.01-.949.01-1.344 0-4.139 0-4.139-1.857 0-1.909 3.486-4.643 5.921-4.643z"/><path d="M72.933 75.307a8.007 8.007 0 0 0 8 8h2.812a8.007 8.007 0 0 0 8-8V52.81a13.514 13.514 0 0 0-9.676-12.969l-.218-.067-.071-.216L77.393 26.1a13.589 13.589 0 0 0-12.952-9.4H35.559a13.59 13.59 0 0 0-12.952 9.4l-4.383 13.456-.071.217-.218.066A13.519 13.519 0 0 0 8.259 52.81v22.5a8.007 8.007 0 0 0 8 8h2.812a8.007 8.007 0 0 0 8-8v-3.25h45.862v3.25zm14.06-2.807v2.812a3.254 3.254 0 0 1-3.25 3.25h-2.812a3.254 3.254 0 0 1-3.25-3.25v-3.25h9.312zM23.524 38.613l3.6-11.044a8.854 8.854 0 0 1 8.437-6.126h28.88a8.853 8.853 0 0 1 8.437 6.125l3.6 11.045.187.574H23.337zM22.319 72.5v2.812a3.254 3.254 0 0 1-3.25 3.25h-2.812a3.254 3.254 0 0 1-3.25-3.25v-3.25h9.312zm-8.874-5.187h-.438V52.81a8.884 8.884 0 0 1 8.874-8.874h56.238a8.884 8.884 0 0 1 8.874 8.874v14.5H13.445z"/><path d="M26.239 62.2l1.787.018c6.179 0 7.477-2.828 7.477-5.2a7.528 7.528 0 0 0-3.1-5.5 10.228 10.228 0 0 0-6.161-2.484c-4.308 0-7.435 2.769-7.435 6.583s3.124 6.583 7.432 6.583zm0-9.824c2.435 0 5.922 2.734 5.922 4.643 0 1.857-2.8 1.857-4.14 1.857-.319 0-.639-.005-.949-.01-.289 0-.569-.008-.833-.008-2.448 0-4.093-1.3-4.093-3.241s1.645-3.243 4.093-3.243z"/></svg>