<svg xmlns="http://www.w3.org/2000/svg" viewBox="0 0 100 100"><path d="M82.66 31.988l-12.4-12.41a1.063 1.063 0 0 0-1.5 0l-1.5 1.5a1.063 1.063 0 0 0 0 1.5l3.92 3.934v10.78a6.359 6.359 0 0 0 6.357 6.358h2.119v23.064a4.423 4.423 0 0 1-3.523 4.424 4.243 4.243 0 0 1-4.953-4.185V60.6A10.593 10.593 0 0 0 60.6 50h-2.124V24.571A8.484 8.484 0 0 0 50 16.1H28.809a8.484 8.484 0 0 0-8.476 8.476v55.1h-3.179a1.062 1.062 0 0 0-1.059 1.06v2.119a1.061 1.061 0 0 0 1.059 1.059h44.5a1.062 1.062 0 0 0 1.06-1.059v-2.128a1.063 1.063 0 0 0-1.06-1.06h-3.178V54.238H60.6a6.36 6.36 0 0 1 6.353 6.362v5.881A8.81 8.81 0 0 0 74 75.31a8.485 8.485 0 0 0 9.906-8.357V34.981a4.227 4.227 0 0 0-1.246-2.993zm-2.993 7.417h-2.119a2.126 2.126 0 0 1-2.119-2.12v-6.542l4.238 4.238zM54.238 79.667H24.571v-33.9h29.667zm0-38.143H24.571V24.571a4.25 4.25 0 0 1 4.238-4.238H50a4.25 4.25 0 0 1 4.238 4.238z"/></svg>