<svg xmlns="http://www.w3.org/2000/svg" viewBox="0 0 100 100"><path d="M38.528 70.022a6.941 6.941 0 1 0 8.209 5.378 7.032 7.032 0 0 0-8.209-5.378zm1.415 10.009a3.211 3.211 0 1 1 3.21-3.211 3.211 3.211 0 0 1-3.21 3.211z"/><path d="M75.845 68.9a9.2 9.2 0 0 0-6.3-2.569H49.33c-1.47 0-1.517-.458-1.562-.885l-4.653-22.487c-.512-2.47-2.947-7.026-8.414-6.875l-.672-3.209a8.681 8.681 0 0 0 4.946-9.709 8.8 8.8 0 0 0-10.247-6.754 8.707 8.707 0 0 0-6.714 10.31 8.717 8.717 0 0 0 8.25 6.935l.687 3.312a7.758 7.758 0 0 0-4.641 5.273 10.461 10.461 0 0 0-.161 4.377l4.61 22.4a1.922 1.922 0 1 0 3.764-.783l-4.613-22.4a6.632 6.632 0 0 1 .112-2.611 4.229 4.229 0 0 1 3.629-3.13 4.578 4.578 0 0 1 5.7 3.76l4.612 22.025c.048 2.075 1.744 4.309 5.354 4.309H69.5a5.408 5.408 0 0 1 3.573 1.394 4.793 4.793 0 0 1 1.257 3.547c-.024 4.425-3.73 4.77-4.863 4.77H49.242a1.931 1.931 0 0 0 0 3.861H69.5c2.981 0 8.629-1.8 8.67-8.606a8.448 8.448 0 0 0-2.325-6.255zM31.42 29.55a4.706 4.706 0 0 1-3.572-.692 4.832 4.832 0 0 1-2.1-3.026 4.793 4.793 0 1 1 5.672 3.718z"/></svg>