<svg xmlns="http://www.w3.org/2000/svg" viewBox="0 0 100 100"><defs><clipPath id="a"><path d="M83.688 78.928l-67.346.1a38.253 38.253 0 0 1-5.278-19.388 38.938 38.938 0 0 1 77.872 0 37.872 37.872 0 0 1-5.248 19.288zM50 16.251A43.6 43.6 0 0 0 6.2 59.643a42.858 42.858 0 0 0 5.94 21.816 4.822 4.822 0 0 0 4.174 2.29h67.374a4.822 4.822 0 0 0 4.174-2.29A42.858 42.858 0 0 0 93.8 59.643 43.6 43.6 0 0 0 50 16.251zm0 53.034a4.821 4.821 0 1 1 4.867-4.821A4.845 4.845 0 0 1 50 69.285zm2.433-14.123V30.715a2.433 2.433 0 0 0-4.866 0v24.447a9.735 9.735 0 1 0 4.866 0z" fill="none"/></clipPath></defs><g clip-path="url(#a)"><path d="M-.983 9.07h101.966v81.86H-.983z"/></g></svg>
