<svg xmlns="http://www.w3.org/2000/svg" xmlns:xlink="http://www.w3.org/1999/xlink" width="1024" zoomAndPan="magnify" viewBox="0 0 768 767.999994" height="1024" preserveAspectRatio="xMidYMid meet" version="1.0"><path fill="#312f30" d="M 619.890625 431.828125 C 648.296875 431.828125 671.289062 454.851562 671.289062 483.269531 C 671.289062 511.660156 648.296875 534.695312 619.890625 534.695312 C 591.523438 534.695312 568.507812 511.660156 568.507812 483.269531 C 568.507812 454.851562 591.523438 431.828125 619.890625 431.828125 Z M 619.890625 510.070312 C 634.691406 510.070312 646.683594 498.070312 646.683594 483.269531 C 646.683594 468.457031 634.691406 456.453125 619.890625 456.453125 C 605.101562 456.453125 593.109375 468.457031 593.109375 483.269531 C 593.109375 498.070312 605.101562 510.070312 619.890625 510.070312 Z M 619.890625 510.070312 " fill-opacity="1" fill-rule="nonzero"/><path fill="#312f30" d="M 173.835938 431.828125 C 202.230469 431.828125 225.21875 454.851562 225.21875 483.269531 C 225.21875 511.660156 202.230469 534.695312 173.835938 534.695312 C 145.464844 534.695312 122.449219 511.660156 122.449219 483.269531 C 122.449219 454.851562 145.464844 431.828125 173.835938 431.828125 Z M 173.835938 510.070312 C 188.621094 510.070312 200.617188 498.070312 200.617188 483.269531 C 200.617188 468.457031 188.621094 456.453125 173.835938 456.453125 C 159.046875 456.453125 147.054688 468.457031 147.054688 483.269531 C 147.054688 498.070312 159.046875 510.070312 173.835938 510.070312 Z M 173.835938 510.070312 " fill-opacity="1" fill-rule="nonzero"/><path fill="#312f30" d="M 25.980469 370.539062 C 36.253906 370.539062 47.839844 370.539062 56.765625 370.539062 C 77.546875 370.539062 83.007812 351.945312 74.269531 351.945312 C 68.21875 351.945312 44.023438 351.945312 29.550781 351.945312 C 29.707031 351.578125 29.824219 351.171875 29.984375 350.84375 C 38.183594 332.785156 79.1875 275.332031 98.871094 268.765625 C 101.234375 267.976562 107.558594 266.964844 116.941406 265.863281 C 125.601562 241.871094 152.589844 240.648438 153.457031 240.621094 C 194.460938 237.289062 259.992188 233.597656 321.074219 233.164062 L 321.097656 233.164062 C 322.84375 233.164062 352.445312 233.542969 358.769531 255.015625 C 409.890625 255.949219 454.414062 259.835938 476.117188 268.765625 C 515.96875 285.179688 568.664062 345.117188 594.210938 350.84375 C 594.210938 350.84375 686.074219 370.539062 710.679688 382.03125 C 715.835938 384.449219 720.140625 387.824219 723.851562 391.722656 C 704.355469 389.820312 676.667969 386.667969 669.109375 383.398438 C 657.089844 378.195312 682.230469 404.460938 688.792969 407.746094 C 692.175781 409.425781 714.367188 409.375 735.097656 408.925781 C 740.425781 420.601562 742.605469 432.683594 743.484375 439.472656 C 745.125 452.605469 743.484375 492 733.640625 498.566406 C 723.800781 505.132812 702.476562 508.417969 689.355469 508.417969 L 679.304688 508.417969 C 682.585938 500.683594 684.410156 492.183594 684.410156 483.253906 C 684.410156 447.652344 655.476562 418.683594 619.890625 418.683594 C 584.316406 418.683594 555.382812 447.652344 555.382812 483.253906 C 555.382812 492.183594 557.207031 500.683594 560.515625 508.417969 L 233.25 508.417969 C 236.53125 500.683594 238.355469 492.183594 238.355469 483.253906 C 238.355469 447.652344 209.421875 418.683594 173.847656 418.683594 C 138.277344 418.683594 109.34375 447.652344 109.34375 483.253906 C 109.34375 492.183594 111.167969 500.683594 114.445312 508.417969 L 103.804688 508.417969 C 103.804688 508.417969 38.195312 496.925781 29.996094 482.152344 C 23.449219 470.398438 22.109375 405.605469 25.980469 370.539062 Z M 425.808594 394.625 L 455.332031 394.625 C 458.96875 394.625 461.894531 391.683594 461.894531 388.058594 C 461.894531 384.433594 458.96875 381.492188 455.332031 381.492188 L 425.808594 381.492188 C 422.199219 381.492188 419.25 384.433594 419.25 388.058594 C 419.25 391.683594 422.199219 394.625 425.808594 394.625 Z M 406.691406 349.304688 C 471.734375 349.304688 531.554688 349.304688 563.992188 349.304688 C 554.53125 342.53125 544.308594 334.046875 533.339844 324.917969 C 512.816406 307.859375 489.566406 288.53125 471.117188 280.925781 C 459.097656 275.976562 436.949219 272.351562 406.691406 270.210938 Z M 338.339844 394.625 L 367.863281 394.625 C 371.5 394.625 374.425781 391.683594 374.425781 388.058594 C 374.425781 384.433594 371.5 381.492188 367.863281 381.492188 L 338.339844 381.492188 C 334.730469 381.492188 331.78125 384.433594 331.78125 388.058594 C 331.78125 391.683594 334.730469 394.625 338.339844 394.625 Z M 245.871094 349.304688 C 288.78125 349.304688 338.695312 349.304688 387.007812 349.304688 L 387.007812 269.066406 C 370.582031 268.320312 352.355469 267.925781 332.421875 267.925781 C 303.332031 267.925781 273.730469 268.699219 245.871094 269.867188 Z M 344.101562 254.832031 C 337.566406 246.480469 321.296875 246.296875 321.125 246.296875 C 260.464844 246.714844 195.289062 250.40625 154.230469 253.730469 C 153.535156 253.753906 140.113281 254.464844 132.582031 264.195312 C 179.910156 259.585938 267.457031 254.242188 344.101562 254.832031 Z M 130.085938 349.304688 C 134.523438 349.304688 169.808594 349.304688 219.039062 349.304688 L 225.140625 270.839844 C 185.933594 272.824219 151.59375 275.488281 129.261719 277.746094 C 119.445312 291.695312 107.113281 309.789062 101.613281 320.203125 C 91.773438 338.8125 113.632812 349.304688 130.085938 349.304688 Z M 130.085938 349.304688 " fill-opacity="1" fill-rule="nonzero"/></svg>