<svg xmlns="http://www.w3.org/2000/svg" viewBox="0 0 100 100"><path d="M81.264,45.534A11.166,11.166,0,1,0,70.1,34.368,11.163,11.163,0,0,0,81.264,45.534Zm0-17.865a6.7,6.7,0,1,1-6.7,6.7A6.7,6.7,0,0,1,81.264,27.669ZM50,50A15.632,15.632,0,1,0,34.368,34.368,15.624,15.624,0,0,0,50,50Zm0-26.8A11.166,11.166,0,1,1,38.834,34.368,11.18,11.18,0,0,1,50,23.2ZM84.055,50H78.472a10.1,10.1,0,0,0-5.736,1.8,18.929,18.929,0,0,1,3.545,3.127,5.553,5.553,0,0,1,2.191-.461h5.583a6.449,6.449,0,0,1,6.141,6.7,2.233,2.233,0,0,0,4.466,0C94.662,55.011,89.9,50,84.055,50ZM18.736,45.534A11.166,11.166,0,1,0,7.571,34.368,11.163,11.163,0,0,0,18.736,45.534Zm0-17.865a6.7,6.7,0,1,1-6.7,6.7A6.7,6.7,0,0,1,18.736,27.669ZM61.179,52.791c-4.661,0-5.82,1.675-11.179,1.675s-6.518-1.675-11.179-1.675a15.382,15.382,0,0,0-12.883,6.546A16,16,0,0,0,23.2,68.311v6.253a6.7,6.7,0,0,0,6.7,6.7H70.1a6.7,6.7,0,0,0,6.7-6.7V68.311a16,16,0,0,0-2.735-8.974,15.382,15.382,0,0,0-12.883-6.546ZM72.331,74.564A2.24,2.24,0,0,1,70.1,76.8H29.9a2.24,2.24,0,0,1-2.233-2.233V68.311a11.6,11.6,0,0,1,1.968-6.476,10.922,10.922,0,0,1,9.17-4.577c3.824,0,5.192,1.674,11.193,1.674s7.369-1.674,11.179-1.674a10.922,10.922,0,0,1,9.17,4.577,11.6,11.6,0,0,1,1.968,6.476v6.253ZM27.264,51.8A10.169,10.169,0,0,0,21.528,50H15.945C10.1,50,5.338,55.011,5.338,61.166a2.233,2.233,0,0,0,4.466,0,6.449,6.449,0,0,1,6.141-6.7h5.583a5.553,5.553,0,0,1,2.191.461A19.38,19.38,0,0,1,27.264,51.8Z"/></svg>
