<svg xmlns="http://www.w3.org/2000/svg" viewBox="0 0 100 100"><path d="M60.824,53.866C57.357,53.866,55.69,55.8,50,55.8s-7.345-1.932-10.824-1.932A16.239,16.239,0,0,0,22.941,70.1v5.026a5.8,5.8,0,0,0,5.8,5.8H71.261a5.8,5.8,0,0,0,5.8-5.8V70.1A16.239,16.239,0,0,0,60.824,53.866Zm12.37,21.261a1.938,1.938,0,0,1-1.933,1.932H28.739a1.938,1.938,0,0,1-1.933-1.932V70.1a12.379,12.379,0,0,1,12.37-12.37c2.368,0,4.724,1.933,10.824,1.933s8.456-1.933,10.824-1.933A12.379,12.379,0,0,1,73.194,70.1ZM50,50A15.463,15.463,0,1,0,34.537,34.537,15.462,15.462,0,0,0,50,50Zm0-27.059a11.6,11.6,0,1,1-11.6,11.6A11.615,11.615,0,0,1,50,22.941Z"/></svg>
