<svg xmlns="http://www.w3.org/2000/svg" viewBox="0 0 100 100"><path d="M72.7,50A13.62,13.62,0,1,0,59.08,36.38,13.623,13.623,0,0,0,72.7,50Zm0-22.7a9.08,9.08,0,1,1-9.08,9.08A9.089,9.089,0,0,1,72.7,27.3ZM31.84,50A15.89,15.89,0,1,0,15.95,34.11,15.882,15.882,0,0,0,31.84,50Zm0-27.24A11.35,11.35,0,1,1,20.49,34.11,11.365,11.365,0,0,1,31.84,22.76ZM43.2,52.838c-4.739,0-5.916,1.7-11.364,1.7s-6.626-1.7-11.364-1.7A15.636,15.636,0,0,0,7.381,59.491,16.254,16.254,0,0,0,4.6,68.614V74.97a6.811,6.811,0,0,0,6.81,6.81H52.27a6.811,6.811,0,0,0,6.81-6.81V68.614A16.254,16.254,0,0,0,56.3,59.491,15.637,15.637,0,0,0,43.2,52.838ZM54.54,74.97a2.276,2.276,0,0,1-2.27,2.27H11.41a2.276,2.276,0,0,1-2.27-2.27V68.614a11.79,11.79,0,0,1,2-6.583,11.1,11.1,0,0,1,9.321-4.653c3.888,0,5.278,1.7,11.379,1.7s7.491-1.7,11.364-1.7a11.1,11.1,0,0,1,9.321,4.653,11.783,11.783,0,0,1,2,6.583V74.97Zm38.548-16.3a13.043,13.043,0,0,0-10.911-5.548c-3.944,0-4.937,1.419-9.477,1.419s-5.533-1.419-9.477-1.419a13.851,13.851,0,0,0-5.406,1.149,13.678,13.678,0,0,1,2.866,3.774,9.313,9.313,0,0,1,2.54-.369c3.093,0,4.256,1.419,9.477,1.419s6.385-1.419,9.477-1.419a8.5,8.5,0,0,1,7.151,3.547,9.031,9.031,0,0,1,1.546,5.065v5.278A1.138,1.138,0,0,1,89.739,72.7H63.62a20.328,20.328,0,0,1-.227,4.54H89.725A5.673,5.673,0,0,0,95.4,71.565V66.273A13.554,13.554,0,0,0,93.088,58.669Z"/></svg>
