<svg xmlns="http://www.w3.org/2000/svg" xmlns:xlink="http://www.w3.org/1999/xlink" width="1024" zoomAndPan="magnify" viewBox="0 0 768 767.999994" height="1024" preserveAspectRatio="xMidYMid meet" version="1.0"><defs><clipPath id="3b9caf6f0e"><path d="M 547 442 L 662 442 L 662 555.964844 L 547 555.964844 Z M 547 442 " clip-rule="nonzero"/></clipPath><clipPath id="ae5dc46fc9"><path d="M 96 442 L 211 442 L 211 555.964844 L 96 555.964844 Z M 96 442 " clip-rule="nonzero"/></clipPath></defs><g clip-path="url(#3b9caf6f0e)"><path fill="#312f30" d="M 604.574219 442.058594 C 636.117188 442.058594 661.671875 467.582031 661.671875 499.078125 C 661.671875 499.835938 661.652344 500.578125 661.632812 501.339844 C 660.445312 531.78125 635.355469 556.117188 604.574219 556.117188 C 573.792969 556.117188 548.707031 531.78125 547.515625 501.339844 C 547.496094 500.578125 547.46875 499.835938 547.46875 499.078125 C 547.457031 467.582031 573.03125 442.058594 604.574219 442.058594 Z M 604.574219 442.058594 " fill-opacity="1" fill-rule="nonzero"/></g><g clip-path="url(#ae5dc46fc9)"><path fill="#312f30" d="M 153.726562 442.058594 C 185.269531 442.058594 210.835938 467.582031 210.835938 499.078125 C 210.835938 499.835938 210.816406 500.578125 210.777344 501.339844 C 209.597656 531.78125 184.507812 556.117188 153.726562 556.117188 C 122.957031 556.117188 97.859375 531.78125 96.679688 501.339844 C 96.640625 500.578125 96.621094 499.835938 96.621094 499.078125 C 96.613281 467.582031 122.183594 442.058594 153.726562 442.058594 Z M 153.726562 442.058594 " fill-opacity="1" fill-rule="nonzero"/></g><path fill="#312f30" d="M 30.078125 423.542969 C 30.078125 423.542969 27.289062 217.636719 61.972656 213.472656 L 487.78125 213.472656 C 487.78125 213.472656 532.597656 211.742188 560.179688 241.878906 L 630.851562 321.085938 C 630.851562 321.085938 642.90625 322.40625 651.304688 329.824219 L 728.679688 393.023438 C 728.679688 393.023438 739.03125 402.429688 739.03125 415.78125 L 739.03125 442.476562 C 739.03125 442.476562 756.691406 488.09375 717.914062 501.015625 L 670.449219 501.015625 C 670.480469 500.160156 670.507812 499.285156 670.507812 498.441406 C 670.507812 462.292969 641.171875 433.003906 604.992188 433.003906 C 568.8125 433.003906 539.488281 462.292969 539.488281 498.441406 C 539.488281 499.296875 539.507812 500.171875 539.546875 501.015625 L 218.785156 501.015625 C 218.824219 500.160156 218.84375 499.285156 218.84375 498.441406 C 218.84375 462.292969 189.515625 433.003906 153.328125 433.003906 C 117.15625 433.003906 87.824219 462.292969 87.824219 498.441406 C 87.824219 499.296875 87.851562 500.171875 87.882812 501.015625 L 70.589844 501.015625 C 70.589844 501.015625 25.765625 503.175781 25.765625 479.914062 L 25.765625 440.746094 C 25.765625 440.761719 25.765625 429.5625 30.078125 423.542969 Z M 481.945312 262.039062 L 481.945312 310.785156 C 481.945312 331.773438 495.84375 330.773438 495.84375 330.773438 L 601.117188 330.773438 C 619.867188 330.773438 607.402344 317.15625 607.402344 317.15625 L 540.8125 244.835938 L 494.875 244.835938 C 480.011719 244.828125 481.945312 262.039062 481.945312 262.039062 Z M 481.945312 262.039062 " fill-opacity="1" fill-rule="nonzero"/></svg>