<svg xmlns="http://www.w3.org/2000/svg" xmlns:xlink="http://www.w3.org/1999/xlink" width="1024" zoomAndPan="magnify" viewBox="0 0 768 767.999994" height="1024" preserveAspectRatio="xMidYMid meet" version="1.0"><defs><clipPath id="787444afb1"><path d="M 66.535156 21.179688 L 701.785156 21.179688 L 701.785156 590 L 66.535156 590 Z M 66.535156 21.179688 " clip-rule="nonzero"/></clipPath><clipPath id="45fdedcead"><path d="M 327 724 L 441 724 L 441 747.179688 L 327 747.179688 Z M 327 724 " clip-rule="nonzero"/></clipPath></defs><path fill="#f5f5f5" d="M 395.226562 599.597656 C 395.226562 600.34375 395.15625 601.082031 395.007812 601.8125 C 394.863281 602.542969 394.648438 603.253906 394.363281 603.941406 C 394.078125 604.628906 393.726562 605.285156 393.3125 605.90625 C 392.898438 606.523438 392.429688 607.097656 391.902344 607.625 C 391.375 608.152344 390.800781 608.621094 390.183594 609.035156 C 389.5625 609.449219 388.90625 609.800781 388.21875 610.085938 C 387.53125 610.371094 386.820312 610.585938 386.089844 610.730469 C 385.359375 610.878906 384.621094 610.949219 383.875 610.949219 C 383.128906 610.949219 382.390625 610.878906 381.660156 610.730469 C 380.929688 610.585938 380.21875 610.371094 379.53125 610.085938 C 378.839844 609.800781 378.1875 609.449219 377.566406 609.035156 C 376.949219 608.621094 376.375 608.152344 375.847656 607.625 C 375.320312 607.097656 374.847656 606.523438 374.433594 605.90625 C 374.019531 605.285156 373.671875 604.628906 373.386719 603.941406 C 373.101562 603.253906 372.886719 602.542969 372.738281 601.8125 C 372.59375 601.082031 372.523438 600.34375 372.523438 599.597656 C 372.523438 598.851562 372.59375 598.113281 372.738281 597.382812 C 372.886719 596.652344 373.101562 595.941406 373.386719 595.253906 C 373.671875 594.5625 374.019531 593.910156 374.433594 593.289062 C 374.847656 592.671875 375.320312 592.097656 375.847656 591.570312 C 376.375 591.042969 376.949219 590.570312 377.566406 590.15625 C 378.1875 589.742188 378.839844 589.394531 379.53125 589.109375 C 380.21875 588.824219 380.929688 588.609375 381.660156 588.460938 C 382.390625 588.316406 383.128906 588.246094 383.875 588.246094 C 384.621094 588.246094 385.359375 588.316406 386.089844 588.460938 C 386.820312 588.609375 387.53125 588.824219 388.21875 589.109375 C 388.90625 589.394531 389.5625 589.742188 390.183594 590.15625 C 390.800781 590.570312 391.375 591.042969 391.902344 591.570312 C 392.429688 592.097656 392.898438 592.671875 393.3125 593.289062 C 393.726562 593.910156 394.078125 594.5625 394.363281 595.253906 C 394.648438 595.941406 394.863281 596.652344 395.007812 597.382812 C 395.15625 598.113281 395.226562 598.851562 395.226562 599.597656 Z M 395.226562 599.597656 " fill-opacity="1" fill-rule="nonzero"/><g clip-path="url(#787444afb1)"><path fill="#f5f5f5" d="M 660.316406 275.480469 L 625.691406 275.480469 C 620.011719 252.773438 610.929688 231.203125 599.011719 211.335938 L 623.417969 186.929688 C 631.367188 178.984375 635.339844 168.199219 634.773438 156.277344 C 634.203125 144.925781 629.09375 134.140625 620.582031 125.625 L 596.738281 101.785156 C 579.144531 84.1875 551.328125 83.054688 535.433594 98.945312 L 511.027344 123.355469 C 490.589844 111.433594 469.019531 102.351562 446.316406 96.675781 L 446.316406 62.617188 C 446.316406 39.914062 425.878906 21.179688 400.902344 21.179688 L 366.84375 21.179688 C 341.871094 21.179688 321.433594 39.914062 321.433594 62.617188 L 321.433594 96.675781 C 298.730469 102.351562 277.160156 111.433594 257.292969 123.355469 L 232.882812 98.945312 C 216.421875 83.054688 189.175781 84.1875 171.578125 101.785156 L 147.738281 125.625 C 138.65625 134.707031 133.546875 146.628906 133.546875 158.546875 C 133.546875 169.332031 137.519531 179.550781 144.898438 186.929688 L 169.308594 211.335938 C 157.386719 231.773438 148.304688 252.773438 142.628906 275.480469 L 108 275.480469 C 85.296875 275.480469 66.5625 295.914062 66.5625 320.890625 L 66.5625 354.949219 C 66.5625 379.925781 85.296875 400.359375 108 400.359375 L 142.628906 400.359375 C 148.304688 423.0625 157.386719 444.632812 169.308594 464.5 L 144.898438 488.910156 C 137.519531 496.289062 133.546875 506.503906 133.546875 517.289062 C 133.546875 529.210938 138.65625 541.699219 147.738281 550.214844 L 171.578125 574.054688 C 189.175781 591.652344 216.988281 592.785156 232.882812 576.890625 L 255.589844 554.1875 L 269.777344 568.378906 C 274.320312 572.917969 281.699219 572.917969 285.671875 568.378906 C 290.214844 563.835938 290.214844 556.457031 285.671875 552.484375 L 263.535156 530.347656 C 258.992188 525.804688 252.183594 525.804688 247.640625 530.347656 L 216.988281 561 C 209.609375 568.378906 196.554688 567.242188 187.472656 558.160156 L 163.628906 534.320312 C 159.089844 529.777344 156.25 523.535156 156.25 517.289062 C 156.25 513.886719 156.820312 508.777344 160.792969 505.371094 L 191.445312 474.71875 C 195.417969 470.746094 195.984375 465.070312 193.148438 460.527344 C 178.390625 437.824219 168.171875 412.847656 162.496094 386.734375 C 161.359375 381.628906 156.820312 377.652344 151.140625 377.652344 L 108 377.652344 C 97.785156 377.652344 89.269531 367.4375 89.269531 354.949219 L 89.269531 320.890625 C 89.269531 308.402344 97.785156 298.183594 108 298.183594 L 151.140625 298.183594 C 156.25 298.183594 161.359375 294.210938 162.496094 289.101562 C 168.171875 262.992188 178.390625 238.015625 193.148438 215.3125 C 195.984375 210.769531 195.417969 205.09375 191.445312 201.121094 L 160.792969 170.46875 C 156.820312 166.496094 156.25 161.386719 156.25 157.980469 C 156.25 151.738281 159.089844 145.492188 163.628906 140.953125 L 187.472656 117.109375 C 196.554688 108.027344 209.609375 106.894531 216.988281 114.273438 L 247.640625 144.925781 C 251.613281 148.898438 257.292969 149.464844 261.832031 146.628906 C 284.539062 131.871094 309.515625 121.652344 335.625 115.976562 C 340.734375 114.839844 344.707031 110.300781 344.707031 104.625 L 344.707031 62.050781 C 344.140625 51.832031 354.359375 43.320312 366.84375 43.320312 L 400.902344 43.320312 C 413.390625 43.320312 423.609375 51.832031 423.609375 62.050781 L 423.609375 105.757812 C 423.609375 110.867188 427.582031 115.976562 432.691406 117.109375 C 458.804688 122.789062 483.78125 133.003906 506.484375 147.761719 C 511.027344 150.601562 516.703125 150.035156 520.675781 146.058594 L 551.328125 115.40625 C 558.707031 108.027344 571.765625 109.164062 580.847656 118.246094 L 604.6875 142.085938 C 609.226562 146.628906 612.066406 152.304688 612.066406 157.980469 C 612.632812 163.089844 610.929688 168.199219 607.523438 171.605469 L 576.871094 201.6875 C 572.898438 205.660156 572.332031 211.335938 575.167969 215.878906 C 589.929688 238.585938 600.144531 263.558594 605.820312 289.671875 C 606.957031 294.78125 611.5 298.753906 617.175781 298.753906 L 660.316406 298.753906 C 670.53125 298.753906 679.046875 308.96875 679.046875 321.457031 L 679.046875 355.515625 C 679.046875 368.003906 670.53125 378.222656 660.316406 378.222656 L 616.605469 378.222656 C 611.5 378.222656 606.390625 382.195312 605.253906 387.304688 C 599.578125 413.414062 589.359375 438.390625 574.601562 461.09375 C 571.765625 465.636719 572.332031 471.3125 576.304688 475.285156 L 606.957031 505.9375 C 610.363281 509.34375 612.066406 513.886719 611.5 519.5625 C 610.929688 525.238281 608.660156 530.914062 604.121094 535.453125 L 580.277344 559.296875 C 571.195312 568.378906 558.140625 569.511719 550.761719 562.132812 L 520.109375 531.480469 C 515.566406 526.941406 508.753906 526.941406 504.214844 531.480469 L 482.644531 553.050781 C 478.101562 557.59375 478.101562 564.402344 482.644531 568.945312 C 487.183594 573.488281 493.996094 573.488281 498.539062 568.945312 L 512.160156 555.320312 L 534.867188 578.027344 C 542.246094 585.40625 552.464844 589.378906 563.25 589.378906 C 575.167969 589.378906 587.089844 584.839844 596.738281 575.1875 L 620.582031 551.347656 C 629.09375 542.835938 634.203125 532.050781 634.773438 520.695312 C 635.339844 508.777344 631.367188 497.992188 623.417969 490.042969 L 599.011719 465.636719 C 610.929688 445.203125 620.011719 424.199219 625.691406 401.492188 L 660.316406 401.492188 C 683.019531 401.492188 701.753906 381.058594 701.753906 356.082031 L 701.753906 322.027344 C 701.753906 295.914062 683.019531 275.480469 660.316406 275.480469 Z M 660.316406 275.480469 " fill-opacity="1" fill-rule="nonzero"/></g><path fill="#f5f5f5" d="M 480.375 593.921875 C 474.128906 593.921875 469.019531 599.03125 469.019531 605.273438 L 469.019531 631.953125 C 469.019531 633.085938 467.886719 633.65625 466.75 633.65625 L 306.675781 633.65625 C 305.539062 633.65625 304.40625 633.085938 304.40625 631.953125 L 304.40625 605.273438 C 304.40625 599.03125 299.296875 593.921875 293.050781 593.921875 C 286.808594 593.921875 281.699219 599.03125 281.699219 605.273438 L 281.699219 631.953125 C 281.699219 645.574219 293.050781 656.359375 306.675781 656.359375 L 467.316406 656.359375 C 480.941406 656.359375 492.292969 645.574219 492.292969 631.953125 L 492.292969 605.273438 C 491.726562 599.03125 486.617188 593.921875 480.375 593.921875 Z M 480.375 593.921875 " fill-opacity="1" fill-rule="nonzero"/><path fill="#f5f5f5" d="M 451.992188 679.066406 L 315.757812 679.066406 C 309.515625 679.066406 304.40625 684.175781 304.40625 690.417969 C 304.40625 696.664062 309.515625 701.769531 315.757812 701.769531 L 451.992188 701.769531 C 458.234375 701.769531 463.34375 696.664062 463.34375 690.417969 C 463.34375 684.175781 458.234375 679.066406 451.992188 679.066406 Z M 451.992188 679.066406 " fill-opacity="1" fill-rule="nonzero"/><g clip-path="url(#45fdedcead)"><path fill="#f5f5f5" d="M 429.285156 724.476562 L 338.464844 724.476562 C 332.21875 724.476562 327.109375 729.585938 327.109375 735.828125 C 327.109375 742.074219 332.21875 747.179688 338.464844 747.179688 L 429.285156 747.179688 C 435.53125 747.179688 440.640625 742.074219 440.640625 735.828125 C 440.640625 729.585938 435.53125 724.476562 429.285156 724.476562 Z M 429.285156 724.476562 " fill-opacity="1" fill-rule="nonzero"/></g><path fill="#f5f5f5" d="M 383.875 462.230469 C 448.585938 462.230469 501.945312 409.441406 501.945312 344.164062 C 501.945312 278.886719 448.585938 226.097656 383.875 226.097656 C 319.164062 226.097656 265.804688 279.453125 265.804688 344.164062 C 265.804688 408.875 319.164062 462.230469 383.875 462.230469 Z M 383.875 248.800781 C 436.097656 248.800781 479.238281 291.375 479.238281 344.164062 C 479.238281 396.953125 436.097656 439.527344 383.875 439.527344 C 331.652344 439.527344 288.511719 396.386719 288.511719 344.164062 C 288.511719 291.941406 331.652344 248.800781 383.875 248.800781 Z M 383.875 248.800781 " fill-opacity="1" fill-rule="nonzero"/><path fill="#f5f5f5" d="M 395.226562 190.902344 L 395.226562 156.84375 C 395.226562 150.601562 390.117188 145.492188 383.875 145.492188 C 377.628906 145.492188 372.523438 150.601562 372.523438 156.84375 L 372.523438 190.902344 C 372.523438 197.148438 377.628906 202.253906 383.875 202.253906 C 390.117188 202.253906 395.226562 197.148438 395.226562 190.902344 Z M 395.226562 190.902344 " fill-opacity="1" fill-rule="nonzero"/><path fill="#f5f5f5" d="M 395.226562 497.421875 C 395.226562 491.179688 390.117188 486.070312 383.875 486.070312 C 377.628906 486.070312 372.523438 491.179688 372.523438 497.421875 L 372.523438 531.480469 C 372.523438 537.726562 377.628906 542.835938 383.875 542.835938 C 390.117188 542.835938 395.226562 537.726562 395.226562 531.480469 Z M 395.226562 497.421875 " fill-opacity="1" fill-rule="nonzero"/><path fill="#f5f5f5" d="M 537.136719 355.515625 L 571.195312 355.515625 C 577.441406 355.515625 582.550781 350.40625 582.550781 344.164062 C 582.550781 337.917969 577.441406 332.8125 571.195312 332.8125 L 537.136719 332.8125 C 530.894531 332.8125 525.785156 337.917969 525.785156 344.164062 C 525.785156 350.40625 530.894531 355.515625 537.136719 355.515625 Z M 537.136719 355.515625 " fill-opacity="1" fill-rule="nonzero"/><path fill="#f5f5f5" d="M 230.613281 332.8125 L 196.554688 332.8125 C 190.308594 332.8125 185.199219 337.917969 185.199219 344.164062 C 185.199219 350.40625 190.308594 355.515625 196.554688 355.515625 L 230.613281 355.515625 C 236.855469 355.515625 241.964844 350.40625 241.964844 344.164062 C 241.964844 337.917969 236.855469 332.8125 230.613281 332.8125 Z M 230.613281 332.8125 " fill-opacity="1" fill-rule="nonzero"/><path fill="#f5f5f5" d="M 500.242188 444.632812 C 495.699219 440.09375 488.886719 440.09375 484.347656 444.632812 C 479.804688 449.175781 479.804688 455.988281 484.347656 460.527344 L 508.1875 484.367188 C 510.457031 486.640625 513.296875 487.773438 516.136719 487.773438 C 518.972656 487.773438 521.8125 486.640625 524.082031 484.367188 C 528.625 479.828125 528.625 473.015625 524.082031 468.472656 Z M 500.242188 444.632812 " fill-opacity="1" fill-rule="nonzero"/><path fill="#f5f5f5" d="M 267.507812 243.691406 C 269.777344 245.964844 272.617188 247.097656 275.457031 247.097656 C 278.292969 247.097656 281.132812 245.964844 283.402344 243.691406 C 287.945312 239.152344 287.945312 232.339844 283.402344 227.800781 L 259.5625 203.957031 C 255.019531 199.417969 248.207031 199.417969 243.667969 203.957031 C 239.125 208.5 239.125 215.3125 243.667969 219.851562 Z M 267.507812 243.691406 " fill-opacity="1" fill-rule="nonzero"/><path fill="#f5f5f5" d="M 251.613281 487.773438 C 254.453125 487.773438 257.292969 486.640625 259.5625 484.367188 L 283.402344 460.527344 C 287.945312 455.988281 287.945312 449.175781 283.402344 444.632812 C 278.863281 440.09375 272.050781 440.09375 267.507812 444.632812 L 243.667969 468.472656 C 239.125 473.015625 239.125 479.828125 243.667969 484.367188 C 245.371094 486.640625 248.777344 487.773438 251.613281 487.773438 Z M 251.613281 487.773438 " fill-opacity="1" fill-rule="nonzero"/><path fill="#f5f5f5" d="M 508.1875 203.957031 L 484.347656 227.800781 C 479.804688 232.339844 479.804688 239.152344 484.347656 243.691406 C 486.617188 245.964844 489.457031 247.097656 492.292969 247.097656 C 495.132812 247.097656 497.96875 245.964844 500.242188 243.691406 L 524.082031 219.851562 C 528.625 215.3125 528.625 208.5 524.082031 203.957031 C 520.109375 199.417969 512.730469 199.417969 508.1875 203.957031 Z M 508.1875 203.957031 " fill-opacity="1" fill-rule="nonzero"/></svg>