<svg xmlns="http://www.w3.org/2000/svg" xmlns:xlink="http://www.w3.org/1999/xlink" width="1024" zoomAndPan="magnify" viewBox="0 0 768 767.999994" height="1024" preserveAspectRatio="xMidYMid meet" version="1.0"><defs><clipPath id="7e479b0e12"><path d="M 507 369 L 649 369 L 649 510.941406 L 507 510.941406 Z M 507 369 " clip-rule="nonzero"/></clipPath><clipPath id="14311ab821"><path d="M 86 369 L 229 369 L 229 510.941406 L 86 510.941406 Z M 86 369 " clip-rule="nonzero"/></clipPath></defs><path fill="#312f30" d="M 285.253906 318.355469 C 289.726562 322.898438 295.734375 324.367188 303.273438 325.902344 L 318.289062 327.375 L 312.347656 312.34375 C 309.277344 304.796875 312.347656 295.777344 319.820312 292.773438 C 327.296875 289.765625 336.308594 292.773438 339.375 300.320312 L 352.855469 331.914062 L 435.539062 342.40625 L 444.546875 342.40625 L 464.101562 336.394531 C 384.421875 304.796875 388.957031 307.804688 378.414062 300.320312 C 358.863281 288.292969 318.289062 288.292969 259.695312 298.785156 Z M 26.730469 349.953125 C 26.730469 334.921875 38.804688 321.363281 52.289062 318.355469 C 106.40625 303.324219 168.003906 286.761719 219.121094 276.207031 C 307.808594 258.167969 361.867188 256.699219 393.429688 276.207031 C 403.972656 282.28125 399.5 279.210938 513.683594 325.902344 C 540.710938 324.367188 710.546875 321.363281 733.105469 378.542969 C 737.578125 390.566406 742.113281 405.597656 743.582031 417.621094 C 745.117188 438.730469 728.566406 456.765625 707.546875 456.765625 L 678.984375 456.765625 C 680.515625 452.226562 680.515625 447.75 680.515625 441.734375 C 680.515625 386.027344 635.40625 340.933594 579.816406 340.933594 C 524.226562 340.933594 479.117188 386.027344 479.117188 441.734375 C 479.117188 446.214844 479.117188 452.226562 480.648438 456.765625 L 258.226562 456.765625 C 259.695312 452.226562 259.695312 447.75 259.695312 441.734375 C 259.695312 386.027344 214.648438 340.933594 159.058594 340.933594 C 103.40625 340.933594 58.292969 386.027344 58.292969 441.734375 C 58.292969 446.214844 58.292969 450.753906 59.828125 456.765625 C 38.804688 453.761719 23.789062 435.722656 25.261719 414.617188 C 22.257812 407.132812 25.261719 351.425781 26.730469 349.953125 " fill-opacity="1" fill-rule="nonzero"/><g clip-path="url(#7e479b0e12)"><path fill="#312f30" d="M 507.675781 440.199219 C 507.675781 479.34375 539.242188 510.941406 578.28125 510.941406 C 617.386719 510.941406 648.953125 479.34375 648.953125 440.199219 C 648.953125 401.121094 617.386719 369.523438 578.28125 369.523438 C 540.710938 369.523438 507.675781 401.121094 507.675781 440.199219 " fill-opacity="1" fill-rule="nonzero"/></g><g clip-path="url(#14311ab821)"><path fill="#312f30" d="M 157.523438 510.878906 C 196.566406 510.878906 228.128906 479.34375 228.128906 440.199219 C 228.128906 401.121094 196.566406 369.523438 157.523438 369.523438 C 118.421875 369.523438 86.855469 401.121094 86.855469 440.199219 C 86.855469 479.34375 118.421875 510.878906 157.523438 510.878906 " fill-opacity="1" fill-rule="nonzero"/></g></svg>