<svg fill="none" height="35" viewBox="0 0 35 35" width="35" xmlns="http://www.w3.org/2000/svg"><path clip-rule="evenodd" d="m5 2.25c-1.24792 0-2.26318 1.00928-2.26318 2.25s1.01526 2.25 2.26318 2.25c1.24805 0 2.26331-1.00928 2.26331-2.25s-1.01526-2.25-2.26331-2.25zm0 3.75c-.83191 0-1.50879-.67285-1.50879-1.5s.67688-1.5 1.50879-1.5c.83203 0 1.50891.67285 1.50891 1.5s-.67688 1.5-1.50891 1.5zm0-6c-2.49988 0-4.526489 2.01465-4.526489 4.5 0 1.49072.429321 2.09863 2.482299 5.0061.44568.6314.9679 1.3711 1.57898 2.2517.22485.3228.70569.323.93042 0 .61011-.8791 1.13159-1.6179 1.57678-2.24877l.0022-.00293c2.0531-2.90747 2.48242-3.51538 2.48242-5.0061 0-2.48535-2.02661-4.5-4.52661-4.5zm-1.46399 9.021-.00366-.00513c-1.97083-2.79346-2.30444-3.26636-2.30444-4.51587 0-1.00171.39245-1.94336 1.10485-2.65161.71241-.70825 1.65967-1.09839 2.66724-1.09839s1.95483.39014 2.66736 1.09839c.7124.70825 1.10473 1.6499 1.10473 2.65161 0 1.24951-.33337 1.72192-2.30444 4.51587l-.00366.00513c-.41248.58447-.89649 1.2707-1.46399 2.0867-.5675-.816-1.05151-1.50223-1.46399-2.0867zm8.72799 4.9414c-.6621-.1257-1.367-.1738-2.0716-.1602-.44179.0086-.80678-.3427-.81532-.7844-.00855-.4419.34265-.8069.78442-.8154.7942-.0151 1.6117.0383 2.4011.1882.4341.0823.7191.501.6366.9351-.0824.4341-.5011.7192-.9352.6367zm-4.42245-.7378c.11231.4273-.14306.8648-.57031.9771-.19348.0507-.3761.1045-.54602.1604-.1532.0503-.29626.1023-.4281.155-.41016.1641-.87573-.0354-1.0398-.4456-.16418-.4104.0354-.8759.44556-1.04.34827-.1394.74036-.2666 1.16162-.3772.42737-.1123.86475.1431.97705.5703zm6.80825.6904c.2881-.3349.7932-.373 1.1282-.0849.1872.1611.3637.3364.5274.5263.1283.1487.2487.3067.3602.4739.3246.4868.4661 1.0923.5285 1.6958.0454.4395-.2741.8325-.7135.878-.4396.0454-.8327-.2742-.8781-.7137-.0305-.2949-.0788-.5215-.1369-.6926-.0401-.1182-.0847-.21-.1312-.2798-.1688-.2534-.3699-.477-.5997-.6748-.335-.2881-.373-.7932-.0849-1.1282zm1.666 5.8243c.4401.0405.7638.4299.7233.8698l-.0082.0899-.0004.0029c-.0802.8704-.1631 1.7708-.2121 2.6812-.0237.4411-.4007.7797-.8418.7558-.4413-.0237-.7797-.4006-.7559-.8418.0507-.9399.1359-1.8659.2152-2.7287l.0007-.0066.0092-.0994c.0405-.4399.4301-.7637.87-.7231zm-.3012 6.739c.4374-.0623.8425.2422.9045.6797.1275.8991.3486 1.7304.6958 2.4668.1883.3996.0171.8764-.3826 1.0647-.3995.1884-.8763.0173-1.0647-.3824-.4324-.917-.689-1.9116-.8326-2.9245-.0622-.4373.2421-.8423.6796-.9043zm2.8096 5.9311c.2152-.3857.7025-.5241 1.0884-.3088.6451.3598 1.4351.6457 2.4048.8254.4344.0803.7214.4978.641.9322-.0805.4345-.498.7214-.9324.6411-1.1161-.2068-2.0751-.5452-2.8929-1.0015-.3859-.2151-.5241-.7024-.3089-1.0884zm9.4707 1.2742c.0501.439-.2651.8354-.7041.8855-.5025.0576-.9859.0998-1.4509.1274-.441.0264-.8198-.3098-.8462-.7509-.0262-.441.3099-.8199.751-.8462.4343-.0259.8888-.0655 1.3645-.1199.4389-.0501.8356.2651.8857.7041zm-4.3784-13.5586c0-1.9644 1.6075-3.5625 3.5835-3.5625s3.5835 1.5981 3.5835 3.5625-1.6075 3.5625-3.5835 3.5625-3.5835-1.5981-3.5835-3.5625zm1.1945 0c0 1.3096 1.0717 2.375 2.389 2.375s2.389-1.0654 2.389-2.375-1.0717-2.375-2.389-2.375-2.389 1.0654-2.389 2.375zm-4.778 0c0-3.9351 3.2087-7.125 7.167-7.125s7.167 3.1899 7.167 7.125c0 2.3606-.6797 3.323-3.9308 7.9275-.7056.9993-1.5323 2.1702-2.4996 3.5642-.356.511-1.1172.511-1.4732 0-.9673-1.394-1.794-2.5649-2.4996-3.5642-3.2511-4.6045-3.9308-5.5669-3.9308-7.9275zm4.8422 7.1489c.6545.9278 1.4231 2.0171 2.3248 3.3135.9016-1.2961 1.67-2.3855 2.3245-3.3132 3.1202-4.4229 3.648-5.1709 3.648-7.1492 0-1.5859-.6213-3.0769-1.7494-4.1985-1.128-1.1213-2.6278-1.739-4.2231-1.739s-3.0951.6177-4.2231 1.739c-1.1281 1.1216-1.7494 2.6126-1.7494 4.1985 0 1.9783.528 2.7268 3.6477 7.1489z" fill="#000" fill-rule="evenodd"/></svg>