<svg xmlns="http://www.w3.org/2000/svg" xmlns:xlink="http://www.w3.org/1999/xlink" width="1024" zoomAndPan="magnify" viewBox="0 0 768 767.999994" height="1024" preserveAspectRatio="xMidYMid meet" version="1.0"><defs><clipPath id="5a4a64da3d"><path d="M 22.652344 235.847656 L 745 235.847656 L 745 489 L 22.652344 489 Z M 22.652344 235.847656 " clip-rule="nonzero"/></clipPath><clipPath id="60dc9af45b"><path d="M 559 414 L 678 414 L 678 532.097656 L 559 532.097656 Z M 559 414 " clip-rule="nonzero"/></clipPath></defs><g clip-path="url(#5a4a64da3d)"><path fill="#312f30" d="M 134.945312 268.554688 C 134.945312 268.554688 143.617188 259.886719 165.625 259.015625 C 187.636719 258.140625 250.9375 257.652344 250.9375 257.652344 L 354.5625 258.722656 C 354.5625 258.722656 398.386719 259.601562 404.035156 261.152344 C 409.683594 262.710938 419.425781 266.703125 419.425781 266.703125 C 419.425781 266.703125 448.25 268.945312 456.332031 271.570312 C 464.414062 274.199219 477.371094 280.523438 477.371094 280.523438 C 477.371094 280.523438 522.070312 303.007812 524.410156 304.273438 C 526.746094 305.539062 571.542969 332.984375 571.542969 332.984375 C 571.542969 332.984375 574.5625 329.582031 576.707031 332.113281 C 578.847656 334.640625 578.847656 333.957031 578.75 334.835938 C 578.652344 335.710938 590.34375 336.296875 591.902344 336.589844 C 593.460938 336.878906 596.964844 336.492188 597.742188 336.878906 C 598.523438 337.269531 639.039062 339.121094 655.980469 342.328125 C 672.929688 345.542969 689.679688 346.90625 702.921875 353.136719 C 716.164062 359.363281 715.878906 358.199219 720.253906 364.421875 C 724.640625 370.65625 725.519531 371.53125 725.421875 372.792969 C 725.324219 374.058594 725.710938 375.519531 727.171875 376.6875 C 728.632812 377.859375 732.335938 379.609375 733.015625 385.449219 C 733.699219 391.289062 737.496094 402.675781 737.300781 403.652344 C 737.105469 404.625 737.007812 406.277344 737.007812 406.277344 C 737.007812 406.277344 742.851562 414.160156 743.144531 417.570312 C 743.441406 420.972656 745.285156 447.742188 743.824219 452.902344 C 742.371094 458.058594 739.734375 471.496094 736.132812 472.957031 C 732.53125 474.414062 723.378906 475.582031 723.378906 475.582031 C 723.378906 475.582031 730.386719 484.925781 724.542969 485.308594 C 718.695312 485.699219 696.496094 484.925781 696.496094 484.925781 L 694.9375 455.332031 C 678.96875 385.246094 581.253906 377.46875 553.917969 430.414062 C 539.316406 458.691406 542.988281 456.070312 543.402344 488.816406 C 543.402344 488.816406 534.4375 489.207031 530.933594 487.257812 C 527.425781 485.308594 522.753906 484.535156 520.804688 485.308594 C 518.859375 486.09375 250.0625 487.648438 250.0625 487.648438 C 249.046875 468.203125 251.167969 453.566406 242.398438 436.230469 C 234.910156 421.425781 219.222656 399.660156 190.460938 395.378906 C 146.050781 388.761719 125.019531 409.394531 114.496094 422.628906 C 97.5625 443.941406 101.636719 451.683594 101.636719 479.082031 C 101.636719 479.082031 54.507812 478.300781 54.507812 475.574219 C 54.507812 460.542969 52.347656 476.136719 43.207031 472.074219 C 39.699219 470.515625 32.300781 470.90625 32.300781 466.625 C 32.300781 462.339844 22.953125 449.882812 22.953125 440.929688 C 22.953125 412.003906 42.425781 407.355469 42.425781 403.164062 C 42.425781 397.320312 36.585938 368.125 39.699219 357.21875 C 42.816406 346.320312 43.207031 342.816406 47.101562 336.585938 C 50.996094 330.359375 67.75 314.007812 71.253906 308.167969 C 74.761719 302.324219 96.96875 282.082031 96.96875 282.082031 C 96.96875 282.082031 80.605469 280.914062 82.941406 278.1875 C 85.277344 275.464844 89.5625 273.90625 106.707031 272.738281 C 123.84375 271.570312 127.058594 271.765625 129.199219 271.765625 C 131.34375 271.765625 130.757812 270.886719 131.828125 270.011719 C 132.90625 269.132812 133.777344 269.035156 133.777344 269.035156 L 108.070312 235.84375 Z M 424.511719 367.675781 C 423.519531 369.359375 422.269531 370.949219 419.523438 370.949219 L 393.851562 370.949219 C 391.113281 370.949219 387.996094 369.386719 388.863281 367.675781 C 392 361.566406 428.152344 361.515625 424.511719 367.675781 Z M 247.507812 361.449219 C 246.515625 363.125 245.261719 364.71875 242.523438 364.71875 L 216.847656 364.71875 C 214.109375 364.71875 210.988281 363.152344 211.863281 361.449219 C 215 355.339844 251.148438 355.28125 247.507812 361.449219 Z M 373.746094 282.179688 L 382.898438 341.75 L 534.046875 346.613281 C 534.046875 346.613281 481.265625 310.792969 473.863281 306.316406 C 466.464844 301.84375 435.101562 277.699219 373.746094 282.179688 Z M 349.394531 281.984375 L 350.179688 340.191406 C 350.179688 340.191406 230.390625 339.414062 226.300781 335.515625 C 222.210938 331.625 221.230469 327.925781 223.378906 324.613281 C 225.515625 321.308594 248.890625 282.765625 260.964844 281.789062 C 273.046875 280.816406 347.257812 280.816406 349.394531 281.984375 " fill-opacity="1" fill-rule="evenodd"/></g><path fill="#312f30" d="M 176.714844 426.429688 C 188.796875 426.429688 199.742188 431.328125 207.664062 439.242188 C 215.582031 447.164062 220.480469 458.097656 220.480469 470.171875 C 220.480469 482.253906 215.582031 493.183594 207.664062 501.101562 C 199.742188 509.019531 188.796875 513.917969 176.714844 513.917969 C 164.628906 513.917969 153.6875 509.019531 145.769531 501.101562 C 137.847656 493.183594 132.949219 482.253906 132.949219 470.171875 C 132.949219 458.097656 137.847656 447.164062 145.769531 439.242188 C 153.6875 431.328125 164.628906 426.429688 176.714844 426.429688 Z M 144.484375 494.660156 L 158.089844 488.738281 C 161.183594 485.335938 166.644531 480.035156 169.121094 476.558594 C 169.964844 475.378906 172.800781 470.84375 166.226562 469.5 C 158.585938 467.933594 148.828125 467.699219 148.828125 467.699219 L 136.238281 470.746094 C 136.238281 470.554688 136.230469 470.367188 136.230469 470.171875 C 136.230469 468.585938 136.324219 467.027344 136.503906 465.488281 L 150.164062 464.042969 L 165.382812 467.933594 C 165.382812 467.933594 166.957031 468.425781 167.160156 467.503906 C 167.359375 466.59375 167.542969 466.332031 165.789062 465.816406 C 164.039062 465.292969 151.339844 460.261719 151.339844 460.261719 L 140.949219 451.210938 C 141.632812 449.929688 142.382812 448.683594 143.191406 447.488281 L 153.148438 458.46875 L 167.320312 464.675781 C 170.9375 466.257812 174.601562 464.804688 173.988281 460.027344 C 173.0625 452.785156 170.128906 442.972656 170.128906 442.972656 L 163.210938 432.023438 C 164.921875 431.417969 166.6875 430.921875 168.496094 430.550781 L 174.210938 442.925781 L 175.1875 458.597656 C 175.1875 458.597656 175.398438 460.234375 176.335938 460.144531 C 177.269531 460.054688 177.375 460.15625 177.328125 458.332031 C 177.28125 456.507812 178.175781 442.878906 178.175781 442.878906 L 183.578125 430.296875 C 185.371094 430.605469 187.125 431.027344 188.828125 431.554688 L 181.152344 444.25 L 179.199219 460.210938 C 179.167969 460.449219 178.902344 467.402344 185.644531 464.648438 C 192.390625 461.898438 200.882812 456.054688 200.882812 456.054688 L 209.398438 446.289062 C 210.449219 447.730469 211.414062 449.242188 212.273438 450.820312 L 201.910156 459.765625 L 187.179688 465.242188 C 187.179688 465.242188 185.640625 465.804688 186 466.675781 C 186.351562 467.542969 186.324219 467.785156 188.058594 467.210938 C 189.789062 466.636719 203.097656 463.539062 203.097656 463.539062 L 216.878906 465.066406 C 217.089844 466.734375 217.199219 468.445312 217.199219 470.171875 C 217.199219 470.472656 217.191406 470.769531 217.1875 471.070312 L 202.847656 467.222656 L 189.996094 469.296875 C 185.886719 470.039062 180.21875 471.636719 184.492188 477.210938 C 189.070312 483.179688 196.984375 489.449219 196.984375 489.449219 L 208.746094 494.914062 C 207.773438 496.179688 206.714844 497.378906 205.601562 498.519531 L 193.847656 491.105469 C 192.644531 489.535156 183.949219 476.796875 182.527344 477.957031 C 181.804688 478.550781 181.628906 478.542969 182.679688 480.035156 C 183.734375 481.527344 190.578125 493.347656 190.578125 493.347656 L 193.167969 507.148438 C 191.8125 507.757812 190.414062 508.285156 188.984375 508.742188 L 188.074219 493.933594 L 181.308594 481.261719 C 179.285156 477.464844 175.761719 474.746094 172.558594 479.808594 C 168.5625 486.125 165.027344 495.585938 165.027344 495.585938 L 163.664062 508.480469 C 161.945312 507.898438 160.285156 507.203125 158.679688 506.40625 L 161.882812 493.324219 L 170.917969 479.996094 C 170.917969 479.996094 171.828125 478.574219 171.015625 478.058594 C 170.199219 477.542969 170.128906 477.363281 169.019531 478.875 C 167.910156 480.382812 158.640625 490.878906 158.640625 490.878906 L 146.824219 497.457031 C 146.003906 496.554688 145.222656 495.625 144.484375 494.660156 Z M 176.710938 464.890625 C 179.617188 464.890625 181.980469 467.25 181.980469 470.15625 C 181.980469 473.074219 179.617188 475.433594 176.710938 475.433594 C 173.800781 475.433594 171.433594 473.074219 171.433594 470.15625 C 171.433594 467.25 173.800781 464.890625 176.710938 464.890625 " fill-opacity="1" fill-rule="evenodd"/><path fill="#312f30" d="M 176.714844 411.410156 C 209.1875 411.410156 235.511719 437.722656 235.511719 470.171875 C 235.511719 502.625 209.1875 528.9375 176.714844 528.9375 C 144.242188 528.9375 117.921875 502.625 117.921875 470.171875 C 117.921875 437.722656 144.242188 411.410156 176.714844 411.410156 Z M 176.714844 424.070312 C 202.1875 424.070312 222.847656 444.710938 222.847656 470.171875 C 222.847656 495.636719 202.1875 516.277344 176.714844 516.277344 C 151.242188 516.277344 130.582031 495.636719 130.582031 470.171875 C 130.582031 444.710938 151.242188 424.070312 176.714844 424.070312 " fill-opacity="1" fill-rule="evenodd"/><path fill="#312f30" d="M 618.71875 429.660156 C 630.800781 429.660156 641.746094 434.554688 649.667969 442.46875 C 657.585938 450.382812 662.484375 461.324219 662.484375 473.398438 C 662.484375 485.480469 657.585938 496.414062 649.667969 504.328125 C 641.746094 512.242188 630.800781 517.136719 618.71875 517.136719 C 606.632812 517.136719 595.691406 512.242188 587.773438 504.328125 C 579.851562 496.414062 574.953125 485.480469 574.953125 473.398438 C 574.953125 461.324219 579.851562 450.382812 587.773438 442.46875 C 595.691406 434.554688 606.632812 429.660156 618.71875 429.660156 Z M 586.488281 497.878906 L 600.09375 491.964844 C 603.1875 488.5625 608.648438 483.261719 611.125 479.789062 C 611.96875 478.609375 614.804688 474.070312 608.230469 472.71875 C 600.589844 471.164062 590.832031 470.925781 590.832031 470.925781 L 578.242188 473.972656 C 578.242188 473.78125 578.234375 473.59375 578.234375 473.398438 C 578.234375 471.8125 578.328125 470.257812 578.503906 468.71875 L 592.167969 467.269531 L 607.386719 471.15625 C 607.386719 471.15625 608.960938 471.652344 609.164062 470.730469 C 609.363281 469.820312 609.546875 469.558594 607.792969 469.042969 C 606.042969 468.523438 593.34375 463.488281 593.34375 463.488281 L 582.953125 454.441406 C 583.636719 453.15625 584.378906 451.910156 585.195312 450.714844 L 595.152344 461.695312 L 609.324219 467.902344 C 612.941406 469.480469 616.605469 468.03125 615.992188 463.246094 C 615.066406 456.011719 612.128906 446.199219 612.128906 446.199219 L 605.214844 435.246094 C 606.925781 434.644531 608.691406 434.152344 610.5 433.777344 L 616.214844 446.152344 L 617.191406 461.820312 C 617.191406 461.820312 617.402344 463.457031 618.335938 463.371094 C 619.273438 463.28125 619.378906 463.382812 619.332031 461.558594 C 619.285156 459.734375 620.179688 446.109375 620.179688 446.109375 L 625.582031 433.523438 C 627.375 433.832031 629.128906 434.253906 630.832031 434.78125 L 623.15625 447.476562 L 621.203125 463.4375 C 621.171875 463.675781 620.90625 470.628906 627.648438 467.875 C 634.386719 465.125 642.882812 459.285156 642.882812 459.285156 L 651.394531 449.515625 C 652.453125 450.957031 653.417969 452.46875 654.277344 454.046875 L 643.914062 462.992188 L 629.183594 468.46875 C 629.183594 468.46875 627.644531 469.03125 628.003906 469.902344 C 628.355469 470.769531 628.328125 471.011719 630.0625 470.4375 C 631.796875 469.863281 645.101562 466.769531 645.101562 466.769531 L 658.878906 468.292969 C 659.09375 469.960938 659.203125 471.671875 659.203125 473.398438 C 659.203125 473.699219 659.195312 474 659.191406 474.296875 L 644.851562 470.453125 L 632 472.523438 C 627.890625 473.269531 622.222656 474.867188 626.496094 480.433594 C 631.074219 486.40625 638.988281 492.675781 638.988281 492.675781 L 650.75 498.140625 C 649.769531 499.40625 648.71875 500.605469 647.605469 501.746094 L 635.851562 494.332031 C 634.648438 492.761719 625.953125 480.023438 624.53125 481.183594 C 623.800781 481.777344 623.632812 481.769531 624.683594 483.261719 C 625.738281 484.753906 632.574219 496.570312 632.574219 496.570312 L 635.171875 510.378906 C 633.816406 510.976562 632.417969 511.511719 630.984375 511.96875 L 630.078125 497.164062 L 623.3125 484.488281 C 621.289062 480.695312 617.765625 477.976562 614.5625 483.035156 C 610.566406 489.351562 607.03125 498.8125 607.03125 498.8125 L 605.667969 511.707031 C 603.949219 511.128906 602.285156 510.429688 600.683594 509.628906 L 603.886719 496.550781 L 612.921875 483.222656 C 612.921875 483.222656 613.832031 481.800781 613.019531 481.289062 C 612.203125 480.773438 612.128906 480.589844 611.023438 482.09375 C 609.914062 483.609375 600.644531 494.097656 600.644531 494.097656 L 588.828125 500.683594 C 588.007812 499.78125 587.222656 498.851562 586.488281 497.878906 Z M 618.710938 468.117188 C 621.621094 468.117188 623.984375 470.476562 623.984375 473.386719 C 623.984375 476.300781 621.621094 478.660156 618.710938 478.660156 C 615.796875 478.660156 613.433594 476.300781 613.433594 473.386719 C 613.433594 470.476562 615.796875 468.117188 618.710938 468.117188 " fill-opacity="1" fill-rule="evenodd"/><g clip-path="url(#60dc9af45b)"><path fill="#312f30" d="M 618.71875 414.636719 C 651.1875 414.636719 677.515625 440.949219 677.515625 473.398438 C 677.515625 505.851562 651.1875 532.164062 618.71875 532.164062 C 586.246094 532.164062 559.925781 505.851562 559.925781 473.398438 C 559.925781 440.949219 586.246094 414.636719 618.71875 414.636719 Z M 618.71875 427.292969 C 644.191406 427.292969 664.851562 447.9375 664.851562 473.398438 C 664.851562 498.863281 644.191406 519.503906 618.71875 519.503906 C 593.238281 519.503906 572.585938 498.863281 572.585938 473.398438 C 572.585938 447.9375 593.238281 427.292969 618.71875 427.292969 " fill-opacity="1" fill-rule="evenodd"/></g></svg>