<svg xmlns="http://www.w3.org/2000/svg" viewBox="0 0 100 100"><path d="M75.114 16.6H40.181a1.912 1.912 0 0 0-1.41.623L34.5 21.9l-2.6-2.446a1.936 1.936 0 0 0-1.372-.5 1.894 1.894 0 0 0-1.324.615l-6.767 7.353a1.908 1.908 0 0 0 .113 2.7l2.642 2.49-1.767 1.938a1.9 1.9 0 0 0-.5 1.285V81.5a1.911 1.911 0 0 0 1.909 1.909h50.28a1.911 1.911 0 0 0 1.909-1.909v-63a1.91 1.91 0 0 0-1.909-1.9zm-1.908 3.817v59.171H26.745V36.075l14.279-15.663zM26.541 28.1l4.181-4.544 1.2 1.159-4.181 4.544z"/><path d="M38.082 38.217H67.9a1.911 1.911 0 0 0 1.909-1.908v-9.2A1.912 1.912 0 0 0 67.9 25.2H45.838a1.906 1.906 0 0 0-1.46.679l-7.756 9.2a1.908 1.908 0 0 0 1.46 3.138zm4.1-3.817l4.539-5.385H66V34.4zM56.712 54.9a37.36 37.36 0 0 1-4.421-8.831 2.481 2.481 0 0 0-2.426-1.757h-.008a2.5 2.5 0 0 0-2.422 1.736 37.574 37.574 0 0 1-4.442 8.852c-1.957 3.117-3.648 5.809-3.65 9.161a9.982 9.982 0 0 0 5.162 8.624 10.877 10.877 0 0 0 5.334 1.394h.009a10.278 10.278 0 0 0 10.5-10c.003-3.373-1.68-6.058-3.636-9.179zm.153 9.173a6.265 6.265 0 0 1-2.043 4.591 7.232 7.232 0 0 1-4.973 1.929h-.008a7.244 7.244 0 0 1-4.979-1.936 6.258 6.258 0 0 1-2.034-4.595c0-2.355 1.376-4.543 3.129-7.334a47.369 47.369 0 0 0 3.9-7.172 47.306 47.306 0 0 0 3.923 7.231c1.72 2.755 3.086 4.929 3.085 7.287z"/></svg>