<svg xmlns="http://www.w3.org/2000/svg" xmlns:xlink="http://www.w3.org/1999/xlink" width="1024" zoomAndPan="magnify" viewBox="0 0 768 767.999994" height="1024" preserveAspectRatio="xMidYMid meet" version="1.0"><defs><clipPath id="7137dc834a"><path d="M 574 395 L 692 395 L 692 512.277344 L 574 512.277344 Z M 574 395 " clip-rule="nonzero"/></clipPath><clipPath id="82f79edaaa"><path d="M 108 395 L 226 395 L 226 512.277344 L 108 512.277344 Z M 108 395 " clip-rule="nonzero"/></clipPath></defs><path fill="#312f30" d="M 729.996094 354.976562 C 729.996094 354.976562 722.988281 348.703125 703.808594 345.011719 C 684.621094 341.324219 607.519531 335.421875 596.820312 334.6875 C 586.125 333.941406 582.066406 333.210938 578.007812 334.316406 C 573.949219 335.421875 566.941406 336.160156 566.941406 336.160156 C 566.941406 336.160156 479.515625 268.285156 465.863281 267.175781 C 452.210938 266.066406 391.714844 262.378906 340.4375 263.484375 C 289.15625 264.59375 289.15625 264.59375 289.15625 264.59375 C 289.15625 264.59375 285.464844 257.214844 279.195312 256.476562 C 272.929688 255.742188 272.191406 256.105469 272.191406 256.105469 L 272.558594 264.960938 C 272.558594 264.960938 253.925781 266.34375 251.4375 267.265625 C 248.949219 268.1875 241.660156 266.992188 242.121094 269.019531 C 242.582031 271.050781 245.90625 276.492188 247.746094 277.042969 C 249.589844 277.597656 251.53125 277.226562 251.160156 278.976562 C 250.796875 280.730469 245.625 315.871094 245.90625 318.542969 C 246.183594 321.21875 247.378906 322.878906 248.117188 322.417969 C 248.855469 321.957031 249.039062 323.4375 248.304688 324.722656 C 247.566406 326.011719 247.839844 327.304688 237.695312 327.121094 C 227.550781 326.941406 42.550781 325.921875 42.550781 325.921875 C 42.550781 325.921875 34.796875 325.738281 33.875 333.488281 C 32.953125 341.234375 32.953125 342.707031 32.953125 342.707031 C 32.953125 342.707031 31.203125 341.785156 31.109375 345.707031 C 31.019531 349.625 30.417969 355.800781 31.152344 356.261719 C 31.890625 356.722656 33.183594 357.09375 32.632812 357.648438 C 32.074219 358.203125 30.972656 357.921875 30.789062 361.984375 C 30.601562 366.039062 30.328125 381.164062 32.074219 387.4375 C 33.832031 393.707031 36.039062 392.695312 34.476562 395.554688 C 32.90625 398.410156 29.402344 399.703125 29.128906 400.902344 C 28.851562 402.101562 29.863281 410.769531 31.0625 413.261719 C 32.261719 415.753906 29.21875 415.015625 29.21875 415.015625 C 29.21875 415.015625 31.25 430.230469 34.566406 432.074219 C 37.886719 433.921875 77.175781 445.726562 81.972656 446.554688 C 86.765625 447.386719 101.339844 450.792969 101.339844 450.792969 C 101.339844 450.792969 101.890625 379.78125 146.71875 379.78125 C 191.535156 379.78125 209.988281 380.703125 217.359375 395.644531 C 224.742188 410.589844 236.175781 453.191406 236.175781 453.191406 L 238.941406 458.175781 L 558.964844 462.601562 L 560.8125 455.40625 C 562.65625 455.222656 562.835938 455.222656 562.835938 455.222656 C 562.835938 455.222656 577.410156 386.789062 597.886719 384.027344 C 618.359375 381.261719 665.945312 379.042969 674.984375 391.035156 C 684.023438 403.023438 692.691406 415.566406 695.640625 434.195312 C 698.59375 452.824219 698.40625 460.386719 698.40625 460.386719 C 698.40625 460.386719 713.53125 459.285156 724.96875 448.949219 C 736.410156 438.621094 736.410156 438.621094 736.410156 438.621094 C 736.410156 438.621094 735.488281 439.171875 736.222656 436.414062 C 736.960938 433.644531 736.773438 431.0625 736.773438 429.582031 C 736.773438 428.109375 738.992188 418.699219 736.039062 417.039062 C 733.085938 415.378906 727.371094 415.378906 727.921875 411.324219 C 728.472656 407.265625 729.03125 405.976562 731.0625 403.207031 C 733.085938 400.441406 732.90625 399.703125 733.085938 398.046875 C 733.269531 396.386719 732.90625 361.523438 729.996094 354.976562 Z M 434.835938 354.355469 C 434.835938 356.167969 436.316406 356.328125 438.125 356.328125 L 449.976562 356.328125 C 451.78125 356.328125 453.261719 356.167969 453.261719 354.355469 C 453.261719 349.261719 434.835938 349.261719 434.835938 354.355469 Z M 405.128906 275.601562 L 415.464844 332.007812 L 549.914062 335.933594 C 481.179688 279.539062 478.488281 272.902344 405.128906 275.601562 Z M 304.628906 350.644531 C 304.628906 352.457031 306.109375 352.625 307.914062 352.625 L 319.757812 352.625 C 321.574219 352.625 323.050781 352.457031 323.050781 350.644531 C 323.050781 345.550781 304.628906 345.550781 304.628906 350.644531 Z M 384.039062 275.601562 L 385.214844 329.792969 C 365.800781 331.394531 293.300781 336.167969 293.910156 305.820312 C 294.089844 296.59375 294.121094 278.304688 294.121094 278.304688 C 294.121094 278.304688 338.113281 273.539062 384.039062 275.601562 " fill-opacity="1" fill-rule="evenodd"/><g clip-path="url(#7137dc834a)"><path fill="#312f30" d="M 632.710938 395.234375 C 600.421875 395.234375 574.238281 421.410156 574.238281 453.703125 C 574.238281 485.996094 600.421875 512.175781 632.710938 512.175781 C 665.003906 512.175781 691.1875 485.996094 691.1875 453.703125 C 691.1875 421.410156 665.003906 395.234375 632.710938 395.234375 Z M 632.710938 409.089844 C 608.070312 409.089844 588.097656 429.066406 588.097656 453.703125 C 588.097656 478.34375 608.070312 498.316406 632.710938 498.316406 C 657.355469 498.316406 677.332031 478.34375 677.332031 453.703125 C 677.332031 429.066406 657.355469 409.089844 632.710938 409.089844 " fill-opacity="1" fill-rule="evenodd"/></g><path fill="#312f30" d="M 632.710938 412.855469 C 610.152344 412.855469 591.863281 431.140625 591.863281 453.703125 C 591.863281 476.265625 610.152344 494.550781 632.710938 494.550781 C 655.273438 494.550781 673.5625 476.265625 673.5625 453.703125 C 673.5625 431.140625 655.273438 412.855469 632.710938 412.855469 Z M 629.320312 445.625 C 627.886719 446.226562 626.644531 447.199219 625.714844 448.429688 L 616.324219 436.378906 L 601.214844 432.722656 C 594.445312 442.703125 594.867188 453.414062 594.867188 453.414062 L 608.757812 457.585938 C 608.757812 457.585938 618.046875 455.847656 623.894531 454.445312 L 623.976562 454.421875 C 624.113281 456.007812 624.664062 457.484375 625.527344 458.71875 L 611.164062 463.929688 L 603.023438 477.167969 C 610.421875 486.691406 620.742188 489.597656 620.742188 489.597656 L 628.996094 477.675781 C 628.996094 477.675781 630.21875 468.304688 630.6875 462.308594 L 630.6875 462.230469 C 631.339844 462.382812 632.019531 462.46875 632.710938 462.46875 C 633.601562 462.46875 634.453125 462.332031 635.253906 462.089844 L 635.773438 477.34375 L 645.851562 489.183594 C 657.1875 485.082031 663.148438 476.164062 663.148438 476.164062 L 654.351562 464.632812 C 654.351562 464.632812 645.816406 460.578125 640.261719 458.277344 L 640.199219 458.257812 C 640.980469 456.96875 641.441406 455.472656 641.472656 453.863281 L 656.132812 458.085938 L 670.507812 452.160156 C 670.109375 440.101562 663.46875 431.683594 663.46875 431.683594 L 649.78125 436.484375 C 649.78125 436.484375 643.285156 443.351562 639.390625 447.925781 L 639.347656 447.984375 C 638.347656 446.824219 637.046875 445.925781 635.566406 445.421875 L 644.113281 432.773438 L 642.929688 417.277344 C 631.34375 413.921875 621.289062 417.628906 621.289062 417.628906 L 621.613281 432.132812 C 621.613281 432.132812 626.128906 440.429688 629.277344 445.554688 Z M 632.699219 415.875 C 611.804688 415.875 594.867188 432.8125 594.867188 453.703125 C 594.867188 474.59375 611.804688 491.53125 632.699219 491.53125 C 653.59375 491.53125 670.535156 474.59375 670.535156 453.703125 C 670.535156 432.8125 653.59375 415.875 632.699219 415.875 Z M 601.855469 475.691406 L 608.386719 462.574219 L 594.957031 456.363281 C 594.957031 456.363281 595.464844 467.078125 601.855469 475.691406 Z M 602.371094 431.011719 L 616.847656 433.242188 L 618.675781 418.566406 C 618.675781 418.566406 608.617188 422.300781 602.371094 431.011719 Z M 645.082031 417.90625 L 647.367188 432.371094 L 661.902344 429.640625 C 661.902344 429.640625 655.28125 421.203125 645.082031 417.90625 Z M 670.566406 454.59375 L 657.484375 461.179688 L 664.503906 474.191406 C 664.503906 474.191406 670.527344 465.316406 670.566406 454.59375 Z M 643.382812 490.039062 L 633.125 479.585938 L 622.863281 490.230469 C 622.863281 490.230469 633.160156 493.269531 643.382812 490.039062 " fill-opacity="1" fill-rule="evenodd"/><g clip-path="url(#82f79edaaa)"><path fill="#312f30" d="M 167.339844 395.144531 C 135.050781 395.144531 108.867188 421.320312 108.867188 453.613281 C 108.867188 485.90625 135.050781 512.085938 167.339844 512.085938 C 199.632812 512.085938 225.808594 485.90625 225.808594 453.613281 C 225.808594 421.320312 199.632812 395.144531 167.339844 395.144531 Z M 167.339844 409 C 142.699219 409 122.726562 428.96875 122.726562 453.613281 C 122.726562 478.253906 142.699219 498.226562 167.339844 498.226562 C 191.984375 498.226562 211.953125 478.253906 211.953125 453.613281 C 211.953125 428.96875 191.984375 409 167.339844 409 " fill-opacity="1" fill-rule="evenodd"/></g><path fill="#312f30" d="M 167.339844 412.761719 C 144.78125 412.761719 126.492188 431.050781 126.492188 453.613281 C 126.492188 476.171875 144.78125 494.460938 167.339844 494.460938 C 189.902344 494.460938 208.191406 476.171875 208.191406 453.613281 C 208.191406 431.050781 189.902344 412.761719 167.339844 412.761719 Z M 163.949219 445.527344 C 162.515625 446.136719 161.273438 447.109375 160.34375 448.339844 L 150.953125 436.289062 L 135.84375 432.632812 C 129.074219 442.613281 129.496094 453.324219 129.496094 453.324219 L 143.386719 457.496094 C 143.386719 457.496094 152.675781 455.761719 158.519531 454.351562 L 158.605469 454.332031 C 158.742188 455.921875 159.292969 457.386719 160.15625 458.625 L 145.792969 463.839844 L 137.644531 477.074219 C 145.050781 486.601562 155.371094 489.507812 155.371094 489.507812 L 163.625 477.578125 C 163.625 477.578125 164.847656 468.214844 165.316406 462.21875 L 165.316406 462.140625 C 165.96875 462.289062 166.648438 462.371094 167.339844 462.371094 C 168.222656 462.371094 169.082031 462.242188 169.882812 462 L 170.402344 477.253906 L 180.480469 489.09375 C 191.816406 484.992188 197.777344 476.074219 197.777344 476.074219 L 188.980469 464.535156 C 188.980469 464.535156 180.445312 460.480469 174.890625 458.1875 L 174.828125 458.164062 C 175.609375 456.882812 176.070312 455.382812 176.101562 453.773438 L 190.761719 457.988281 L 205.136719 452.0625 C 204.738281 440.011719 198.097656 431.59375 198.097656 431.59375 L 184.414062 436.394531 C 184.414062 436.394531 177.917969 443.261719 174.019531 447.835938 L 173.976562 447.886719 C 172.976562 446.726562 171.675781 445.835938 170.195312 445.324219 L 178.742188 432.683594 L 177.558594 417.1875 C 165.976562 413.832031 155.917969 417.539062 155.917969 417.539062 L 156.242188 432.035156 C 156.242188 432.035156 160.761719 440.339844 163.90625 445.464844 Z M 167.328125 415.777344 C 146.433594 415.777344 129.496094 432.714844 129.496094 453.613281 C 129.496094 474.503906 146.433594 491.441406 167.328125 491.441406 C 188.222656 491.441406 205.164062 474.503906 205.164062 453.613281 C 205.164062 432.714844 188.222656 415.777344 167.328125 415.777344 Z M 136.484375 475.59375 L 143.015625 462.480469 L 129.585938 456.273438 C 129.585938 456.273438 130.085938 466.988281 136.484375 475.59375 Z M 137 430.921875 L 151.476562 433.144531 L 153.304688 418.46875 C 153.304688 418.46875 143.246094 422.210938 137 430.921875 Z M 179.710938 417.808594 L 181.996094 432.28125 L 196.53125 429.550781 C 196.53125 429.550781 189.910156 421.109375 179.710938 417.808594 Z M 205.195312 454.503906 L 192.113281 461.082031 L 199.132812 474.101562 C 199.132812 474.101562 205.15625 465.222656 205.195312 454.503906 Z M 178.003906 489.949219 L 167.753906 479.488281 L 157.492188 490.144531 C 157.492188 490.144531 167.78125 493.179688 178.003906 489.949219 " fill-opacity="1" fill-rule="evenodd"/></svg>