<svg xmlns="http://www.w3.org/2000/svg" xmlns:xlink="http://www.w3.org/1999/xlink" width="1024" zoomAndPan="magnify" viewBox="0 0 768 767.999994" height="1024" preserveAspectRatio="xMidYMid meet" version="1.0"><defs><clipPath id="db69371b65"><path d="M 120 409 L 219 409 L 219 508.070312 L 120 508.070312 Z M 120 409 " clip-rule="nonzero"/></clipPath><clipPath id="2eaac4716a"><path d="M 575 409 L 674 409 L 674 508.070312 L 575 508.070312 Z M 575 409 " clip-rule="nonzero"/></clipPath></defs><path fill="#312f30" d="M 332.914062 282.328125 L 337.050781 337.578125 L 216.058594 328.816406 C 215.113281 307.414062 212.914062 311.847656 226.0625 295.09375 C 226.0625 295.09375 305.734375 278.238281 332.914062 282.328125 Z M 226.464844 353.359375 L 201.847656 353.359375 C 199.613281 353.359375 197.789062 355.183594 197.789062 357.414062 C 197.789062 359.640625 199.613281 361.464844 201.847656 361.464844 L 226.464844 361.464844 C 228.695312 361.464844 230.523438 359.640625 230.523438 357.414062 C 230.523438 355.183594 228.695312 353.359375 226.464844 353.359375 Z M 397.921875 363.09375 L 373.300781 363.09375 C 371.070312 363.09375 369.246094 364.917969 369.246094 367.144531 C 369.246094 369.375 371.070312 371.199219 373.300781 371.199219 L 397.921875 371.199219 C 400.152344 371.199219 401.980469 369.375 401.980469 367.144531 C 401.980469 364.917969 400.152344 363.09375 397.921875 363.09375 Z M 557.425781 354.566406 L 367.316406 339.824219 L 354.675781 282.375 C 354.675781 282.375 459.378906 276.058594 557.425781 354.566406 Z M 45.742188 328.964844 C 45.742188 328.964844 76.871094 327.648438 82.640625 326.042969 C 115.089844 317.015625 153.617188 301.039062 187.269531 290.128906 C 198.328125 287.136719 209.382812 284.144531 220.4375 281.148438 C 220.550781 277.679688 219.515625 277.296875 217.589844 274.363281 C 225.164062 275.140625 232.738281 275.917969 240.316406 276.699219 C 368.65625 259.816406 444.988281 271.582031 557.847656 337.945312 L 573.117188 344.878906 C 572.980469 343.503906 577.761719 343.800781 579.5 343.792969 C 580.824219 343.785156 586.023438 346.664062 587.21875 348.453125 C 634.105469 349.222656 704.0625 370.554688 741.675781 398.3125 C 747.476562 415.832031 747.550781 430.382812 746.789062 448.316406 C 744.410156 458.554688 747.960938 461.667969 747.960938 471.3125 C 750.203125 482.082031 694.839844 481.640625 684.246094 482.117188 C 695.542969 432.117188 660.226562 399.085938 624.132812 398.894531 C 596.640625 398.75 568.9375 418.429688 560.988281 450.363281 C 560.585938 469.679688 567.726562 500.019531 551.636719 483.941406 L 438.828125 481.898438 C 371.707031 481.605469 304.585938 481.3125 237.464844 481.019531 L 234.542969 477.515625 C 242.585938 371.871094 90.347656 373.371094 109.457031 476.640625 C 88.347656 462.765625 50.882812 461.75 25.289062 456.785156 C 23.691406 445.367188 22.894531 443.839844 25.289062 432.550781 C 17.453125 405.160156 24.792969 398.277344 39.023438 376.195312 C 39.609375 372.789062 40.195312 369.382812 40.777344 365.976562 C 40.777344 365.976562 36.980469 357.214844 40.777344 349.039062 C 45.148438 339.636719 40.121094 339.613281 45.742188 328.964844 " fill-opacity="1" fill-rule="evenodd"/><g clip-path="url(#db69371b65)"><path fill="#312f30" d="M 169.453125 409.914062 C 142.328125 409.914062 120.339844 431.878906 120.339844 458.980469 C 120.339844 486.082031 142.328125 508.050781 169.453125 508.050781 C 196.574219 508.050781 218.5625 486.082031 218.5625 458.980469 C 218.5625 431.878906 196.574219 409.914062 169.453125 409.914062 Z M 135.621094 467.800781 C 135.621094 467.800781 161.226562 456.429688 162.273438 463.148438 C 163.324219 469.863281 144.996094 483.785156 144.996094 483.785156 C 144.996094 483.785156 134.621094 479.429688 135.621094 467.800781 Z M 194.011719 434.117188 C 194.011719 434.117188 171.351562 450.585938 176.652344 454.855469 C 181.949219 459.121094 203.175781 450.222656 203.175781 450.222656 C 203.175781 450.222656 204.59375 439.066406 194.011719 434.117188 Z M 144.890625 434.117188 C 144.890625 434.117188 167.550781 450.585938 162.25 454.855469 C 156.949219 459.121094 135.726562 450.222656 135.726562 450.222656 C 135.726562 450.222656 134.316406 439.066406 144.890625 434.117188 Z M 203.28125 467.800781 C 203.28125 467.800781 177.675781 456.429688 176.628906 463.148438 C 175.582031 469.863281 193.910156 483.785156 193.910156 483.785156 C 193.910156 483.785156 204.28125 479.429688 203.28125 467.800781 Z M 178.722656 425.300781 C 178.722656 425.300781 175.777344 453.140625 169.429688 450.6875 C 163.082031 448.234375 160.179688 425.417969 160.179688 425.417969 C 160.179688 425.417969 169.144531 418.621094 178.722656 425.300781 Z M 178.722656 492.664062 C 178.722656 492.664062 175.777344 464.820312 169.429688 467.273438 C 163.082031 469.726562 160.179688 492.542969 160.179688 492.542969 C 160.179688 492.542969 169.144531 499.34375 178.722656 492.664062 Z M 169.453125 451.402344 C 165.261719 451.402344 161.867188 454.796875 161.867188 458.980469 C 161.867188 463.164062 165.261719 466.558594 169.453125 466.558594 C 173.640625 466.558594 177.035156 463.164062 177.035156 458.980469 C 177.035156 454.796875 173.640625 451.402344 169.453125 451.402344 " fill-opacity="1" fill-rule="evenodd"/></g><g clip-path="url(#2eaac4716a)"><path fill="#312f30" d="M 624.871094 409.875 C 597.746094 409.875 575.757812 431.84375 575.757812 458.945312 C 575.757812 486.042969 597.746094 508.011719 624.871094 508.011719 C 651.992188 508.011719 673.984375 486.042969 673.984375 458.945312 C 673.984375 431.84375 651.992188 409.875 624.871094 409.875 Z M 591.039062 467.761719 C 591.039062 467.761719 616.644531 456.390625 617.691406 463.109375 C 618.742188 469.828125 600.414062 483.746094 600.414062 483.746094 C 600.414062 483.746094 590.039062 479.390625 591.039062 467.761719 Z M 649.429688 434.082031 C 649.429688 434.082031 626.769531 450.550781 632.070312 454.816406 C 637.371094 459.082031 658.597656 450.183594 658.597656 450.183594 C 658.597656 450.183594 660.007812 439.03125 649.429688 434.082031 Z M 600.308594 434.082031 C 600.308594 434.082031 622.96875 450.550781 617.671875 454.816406 C 612.371094 459.082031 591.144531 450.183594 591.144531 450.183594 C 591.144531 450.183594 589.730469 439.03125 600.308594 434.082031 Z M 658.703125 467.761719 C 658.703125 467.761719 633.09375 456.390625 632.046875 463.109375 C 631 469.828125 649.324219 483.746094 649.324219 483.746094 C 649.324219 483.746094 659.703125 479.390625 658.703125 467.761719 Z M 634.140625 425.261719 C 634.140625 425.261719 631.195312 453.101562 624.847656 450.648438 C 618.5 448.199219 615.597656 425.382812 615.597656 425.382812 C 615.597656 425.382812 624.5625 418.582031 634.140625 425.261719 Z M 634.140625 492.625 C 634.140625 492.625 631.195312 464.785156 624.847656 467.238281 C 618.5 469.691406 615.597656 492.503906 615.597656 492.503906 C 615.597656 492.503906 624.5625 499.304688 634.140625 492.625 Z M 624.871094 451.367188 C 620.679688 451.367188 617.285156 454.757812 617.285156 458.945312 C 617.285156 463.128906 620.679688 466.519531 624.871094 466.519531 C 629.058594 466.519531 632.453125 463.128906 632.453125 458.945312 C 632.453125 454.757812 629.058594 451.367188 624.871094 451.367188 " fill-opacity="1" fill-rule="evenodd"/></g></svg>