<svg xmlns="http://www.w3.org/2000/svg" xmlns:xlink="http://www.w3.org/1999/xlink" width="1024" zoomAndPan="magnify" viewBox="0 0 768 767.999994" height="1024" preserveAspectRatio="xMidYMid meet" version="1.0"><defs><clipPath id="90a2412646"><path d="M 26.402344 55.625 L 684 55.625 L 684 712.625 L 26.402344 712.625 Z M 26.402344 55.625 " clip-rule="nonzero"/></clipPath></defs><rect x="-76.8" width="921.6" fill="#ffffff" y="-76.799999" height="921.599993" fill-opacity="1"/><rect x="-76.8" width="921.6" fill="#ffffff" y="-76.799999" height="921.599993" fill-opacity="1"/><rect x="-76.8" width="921.6" fill="#181819" y="-76.799999" height="921.599993" fill-opacity="1"/><g clip-path="url(#90a2412646)"><path fill="#41b93c" d="M 635.378906 343.875 C 637.261719 357.058594 638.292969 370.515625 638.292969 384.214844 C 638.292969 540.464844 511.179688 667.582031 354.925781 667.582031 C 198.671875 667.582031 71.550781 540.464844 71.550781 384.214844 C 71.550781 227.964844 198.671875 100.847656 354.925781 100.847656 C 436.28125 100.847656 509.6875 135.363281 561.410156 190.449219 L 593.328125 158.535156 C 533.40625 95.28125 448.730469 55.699219 354.925781 55.699219 C 173.78125 55.699219 26.402344 203.074219 26.402344 384.214844 C 26.402344 565.355469 173.78125 712.730469 354.925781 712.730469 C 536.070312 712.730469 683.449219 565.355469 683.449219 384.214844 C 683.449219 357.050781 680.070312 330.683594 673.832031 305.417969 L 635.378906 343.875 " fill-opacity="1" fill-rule="nonzero"/></g><path fill="#41b93c" d="M 728.578125 136.972656 C 707.765625 116.164062 674.007812 116.164062 653.191406 136.972656 L 357.015625 433.140625 L 248.238281 324.367188 C 227.417969 303.546875 193.660156 303.546875 172.847656 324.367188 C 152.027344 345.183594 152.027344 378.933594 172.847656 399.753906 L 319.324219 546.226562 C 329.734375 556.632812 343.375 561.835938 357.015625 561.835938 C 370.664062 561.835938 384.304688 556.632812 394.714844 546.226562 L 728.578125 212.367188 C 749.40625 191.542969 749.40625 157.800781 728.578125 136.972656 " fill-opacity="1" fill-rule="nonzero"/></svg>