<svg xmlns="http://www.w3.org/2000/svg" xmlns:xlink="http://www.w3.org/1999/xlink" width="1024" zoomAndPan="magnify" viewBox="0 0 768 767.999994" height="1024" preserveAspectRatio="xMidYMid meet" version="1.0"><defs><clipPath id="685a93b210"><path d="M 22.652344 254.816406 L 745.347656 254.816406 L 745.347656 476 L 22.652344 476 Z M 22.652344 254.816406 " clip-rule="nonzero"/></clipPath><clipPath id="f5a75f4854"><path d="M 572 400 L 685 400 L 685 512.816406 L 572 512.816406 Z M 572 400 " clip-rule="nonzero"/></clipPath></defs><path fill="#312f30" d="M 417.839844 272.921875 C 414.019531 273.28125 407.796875 275.394531 407.566406 285.296875 C 407.242188 299.625 406.746094 334.6875 406.746094 334.6875 L 535.070312 337.816406 C 535.070312 337.816406 539.855469 330.082031 531.113281 322.507812 C 523.132812 315.597656 486.074219 276.234375 435.65625 272.863281 C 430.433594 272.511719 423.09375 272.429688 417.839844 272.921875 Z M 378.621094 272.625 C 380.511719 273.214844 381.769531 278.726562 381.925781 283.566406 C 382.25 293.9375 379.945312 334.609375 379.945312 334.609375 C 379.945312 334.609375 313.1875 334.609375 294.933594 332.242188 C 290.035156 331.601562 288.207031 329.273438 286.292969 324.304688 C 284.707031 320.191406 284.03125 313.046875 287.574219 298.882812 C 294.34375 271.882812 296.734375 272.949219 314.214844 272.617188 C 320.328125 272.507812 374.632812 271.367188 378.621094 272.625 Z M 58.886719 335.019531 C 58.886719 335.019531 229.433594 336.988281 232.734375 331.726562 C 236.039062 326.457031 266.710938 279.703125 266.054688 274.765625 C 265.394531 269.820312 245.933594 271.464844 241.976562 271.796875 C 238.011719 272.128906 110.347656 274.101562 100.785156 274.765625 C 91.21875 275.421875 89.902344 275.421875 89.902344 275.421875 C 89.902344 275.421875 71.097656 302.746094 58.886719 335.019531 Z M 438.90625 357.824219 L 405.59375 357.824219 C 404.140625 357.824219 402.953125 359.007812 402.953125 360.453125 L 402.953125 360.457031 C 402.953125 361.902344 404.140625 363.085938 405.59375 363.085938 L 438.90625 363.085938 C 440.359375 363.085938 441.546875 361.902344 441.546875 360.457031 L 441.546875 360.453125 C 441.546875 359.007812 440.359375 357.824219 438.90625 357.824219 Z M 312.246094 355.714844 L 278.925781 355.714844 C 277.472656 355.714844 276.285156 356.898438 276.285156 358.351562 C 276.285156 359.792969 277.472656 360.984375 278.925781 360.984375 L 312.246094 360.984375 C 313.699219 360.984375 314.886719 359.792969 314.886719 358.351562 C 314.886719 356.898438 313.699219 355.714844 312.246094 355.714844 Z M 719.492188 350.53125 C 719.492188 350.53125 691.125 339.988281 652.03125 335.382812 C 612.941406 330.769531 611.789062 329.949219 605.355469 331.09375 C 598.921875 332.253906 599.253906 330.933594 593.972656 330.933594 C 588.695312 330.933594 583.917969 329.617188 580.617188 326.820312 C 577.3125 324.015625 575.339844 321.550781 574.015625 323.359375 C 572.699219 325.175781 571.210938 326.820312 569.5625 325.175781 C 567.914062 323.523438 496.65625 275.78125 493.195312 273.972656 C 489.734375 272.164062 478.679688 268.375 478.679688 268.375 C 478.679688 268.375 475.382812 260.46875 472.90625 259.480469 C 470.433594 258.492188 469.445312 258.492188 469.445312 258.492188 L 469.941406 264.09375 C 469.941406 264.09375 464.785156 263.230469 464.375 264.628906 C 463.890625 266.246094 464.335938 266.097656 463.117188 265.859375 C 446.539062 262.636719 435.921875 262.382812 419.261719 261.414062 C 419.261719 261.414062 415.800781 256.96875 402.355469 256.722656 C 388.914062 256.476562 224.46875 255.238281 198.570312 256.390625 C 172.675781 257.550781 117.050781 258 117.050781 258 C 117.050781 258 104.183594 257.75 101.214844 260.300781 C 98.246094 262.859375 96.347656 265.492188 96.347656 265.492188 C 96.347656 265.492188 77.300781 267.300781 73.261719 268.699219 C 69.21875 270.101562 67.238281 271.25 69.460938 272.648438 C 71.6875 274.050781 73.261719 274.710938 73.261719 274.710938 C 73.261719 274.710938 50.167969 302.863281 44.390625 318.507812 C 38.621094 334.148438 38.785156 334.804688 38.785156 334.804688 C 38.785156 334.804688 36.804688 335.136719 36.804688 336.613281 C 36.804688 338.097656 34.496094 371.679688 35.8125 383.210938 C 37.136719 394.734375 36.640625 395.226562 36.640625 395.226562 C 36.640625 395.226562 25.261719 396.542969 24.929688 398.683594 C 24.601562 400.824219 22.953125 418.765625 23.28125 421.570312 C 23.613281 424.367188 27.738281 438.609375 29.386719 439.925781 C 31.03125 441.246094 34 442.3125 35.15625 442.96875 C 36.308594 443.625 39.777344 446.757812 43.402344 446.757812 C 47.03125 446.757812 124.722656 455.320312 124.722656 455.320312 C 124.722656 455.320312 123.382812 428.480469 128.761719 407.453125 C 133.421875 389.246094 137.863281 383.816406 155.488281 382.117188 C 182.992188 379.476562 224.578125 377.269531 235.554688 394.238281 C 247.601562 412.847656 249.746094 448.078125 249.746094 448.078125 L 251.394531 452.027344 L 251.890625 459.929688 L 565.933594 462.070312 L 565.273438 454.003906 C 565.273438 454.003906 565.089844 452.039062 565.4375 450.378906 C 565.664062 449.300781 570.671875 390.242188 591.992188 385.351562 C 611.664062 381.113281 671.039062 376.328125 682.710938 398.1875 C 691.085938 420.378906 693.882812 443.09375 693.226562 451.65625 C 692.566406 460.21875 692.769531 472.769531 692.769531 472.769531 C 692.769531 472.769531 713.554688 472.28125 715.203125 471.292969 C 716.851562 470.300781 719.492188 470.300781 720.3125 465.363281 C 721.140625 460.425781 720.3125 458.449219 720.3125 458.449219 C 720.3125 458.449219 730.542969 456.46875 733.34375 451.53125 C 736.148438 446.59375 743.238281 436.546875 743.238281 433.585938 C 743.238281 426.476562 745.179688 413.425781 743.1875 407.199219 C 741.871094 403.082031 733.34375 398.355469 733.34375 398.355469 C 733.34375 398.355469 735.820312 359.339844 719.492188 350.53125 " fill-opacity="1" fill-rule="evenodd"/><g clip-path="url(#685a93b210)"><path stroke-linecap="butt" transform="matrix(-0.166864, 0, 0, -0.166559, 745.356878, 514.316827)" fill="none" stroke-linejoin="miter" d="M 1962.779211 1449.305413 C 1985.67399 1447.14777 2022.965792 1434.459891 2024.346969 1375.007445 C 2026.289982 1288.983156 2029.263026 1078.472245 2029.263026 1078.472245 L 1260.227885 1059.686679 C 1260.227885 1059.686679 1231.550887 1106.122909 1283.942006 1151.597581 C 1331.768215 1193.085304 1553.85693 1429.417573 1856.007141 1449.657203 C 1887.306036 1451.76794 1931.293038 1452.260446 1962.779211 1449.305413 Z M 2197.813543 1451.087814 C 2186.483202 1447.546465 2178.945249 1414.454788 2178.008857 1385.396965 C 2176.065844 1323.130202 2189.877623 1078.941298 2189.877623 1078.941298 C 2189.877623 1078.941298 2589.951001 1078.941298 2699.344969 1093.153599 C 2728.70085 1096.999832 2739.656634 1110.977606 2751.127433 1140.809366 C 2760.631809 1165.504998 2764.681704 1208.399879 2743.44902 1293.439157 C 2702.879848 1455.543816 2688.553054 1449.141245 2583.794226 1451.134719 C 2547.157898 1451.791393 2221.714942 1458.639564 2197.813543 1451.087814 Z M 4113.951998 1076.47877 C 4113.951998 1076.47877 3091.880394 1064.658639 3072.099118 1096.249347 C 3052.294432 1127.886961 2868.48073 1408.591627 2872.413575 1438.235766 C 2876.369831 1467.926811 2992.997424 1458.053248 3016.711545 1456.059774 C 3040.472486 1454.066299 3805.551373 1442.222715 3862.858548 1438.235766 C 3920.189134 1434.295723 3928.078234 1434.295723 3928.078234 1434.295723 C 3928.078234 1434.295723 4040.772982 1270.244495 4113.951998 1076.47877 Z M 1836.530193 939.562249 L 2036.168915 939.562249 C 2044.877359 939.562249 2051.993936 932.456099 2051.993936 923.778621 L 2051.993936 923.755169 C 2051.993936 915.077691 2044.877359 907.971541 2036.168915 907.971541 L 1836.530193 907.971541 C 1827.821749 907.971541 1820.705172 915.077691 1820.705172 923.755169 L 1820.705172 923.778621 C 1820.705172 932.456099 1827.821749 939.562249 1836.530193 939.562249 Z M 2595.592762 952.226676 L 2795.278304 952.226676 C 2803.986748 952.226676 2811.103325 945.120525 2811.103325 936.396142 C 2811.103325 927.742118 2803.986748 920.589062 2795.278304 920.589062 L 2595.592762 920.589062 C 2586.884318 920.589062 2579.767741 927.742118 2579.767741 936.396142 C 2579.767741 945.120525 2586.884318 952.226676 2595.592762 952.226676 Z M 155.004692 983.348331 C 155.004692 983.348331 325.006616 1046.64701 559.291834 1074.297675 C 793.553642 1101.995244 800.459531 1106.920299 839.015462 1100.048675 C 877.571393 1093.083241 875.58156 1101.010234 907.231602 1101.010234 C 938.858233 1101.010234 967.488411 1108.913774 987.269687 1125.705865 C 1007.074373 1142.544862 1018.896319 1157.343479 1026.832239 1146.484905 C 1034.721339 1135.579427 1043.640471 1125.705865 1053.519404 1135.579427 C 1063.398337 1145.499895 1490.439799 1432.13808 1511.180876 1442.996653 C 1531.921953 1453.878678 1598.17167 1476.604288 1598.17167 1476.604288 C 1598.17167 1476.604288 1617.929536 1524.072434 1632.771346 1530.005953 C 1647.589745 1535.939471 1653.512423 1535.939471 1653.512423 1535.939471 L 1650.539379 1502.308383 C 1650.539379 1502.308383 1681.440308 1507.491417 1683.898336 1499.095371 C 1686.80115 1489.385978 1684.132434 1490.277178 1691.43629 1491.707789 C 1790.787455 1511.056218 1854.415275 1512.58064 1954.258046 1518.396895 C 1954.258046 1518.396895 1974.999124 1545.086001 2055.575635 1546.563518 C 2136.128736 1548.041034 3121.634242 1555.475521 3276.841176 1548.556992 C 3432.0247 1541.591558 3765.380166 1538.917956 3765.380166 1538.917956 C 3765.380166 1538.917956 3842.492028 1540.395473 3860.283471 1525.080898 C 3878.074914 1509.719418 3889.452074 1493.912337 3889.452074 1493.912337 C 3889.452074 1493.912337 4003.59823 1483.053764 4027.803957 1474.657719 C 4052.033093 1466.261673 4063.901859 1459.343144 4050.581686 1450.947098 C 4037.238104 1442.5276 4027.803957 1438.564103 4027.803957 1438.564103 C 4027.803957 1438.564103 4166.202658 1269.540916 4200.825744 1175.636539 C 4235.402009 1081.70871 4234.418798 1077.768666 4234.418798 1077.768666 C 4234.418798 1077.768666 4246.287564 1075.775191 4246.287564 1066.910093 C 4246.287564 1057.998089 4260.122752 856.37573 4252.233651 787.143532 C 4244.297731 717.958239 4247.270775 715.003206 4247.270775 715.003206 C 4247.270775 715.003206 4315.463505 707.099666 4317.453337 694.247619 C 4319.41976 681.395571 4329.298693 573.677588 4327.33227 556.838592 C 4325.342438 540.0465 4300.621695 454.538169 4290.742762 446.634629 C 4280.887239 438.707636 4263.095796 432.305065 4256.166497 428.365021 C 4249.260607 424.424978 4228.47271 405.615959 4206.748422 405.615959 C 4185.000723 405.615959 3719.403331 354.207769 3719.403331 354.207769 C 3719.403331 354.207769 3727.43289 515.350869 3695.197604 641.596438 C 3667.26972 750.9092 3640.652784 783.508372 3535.027794 793.710271 C 3370.199434 809.564257 3120.978768 822.814999 3055.197247 720.936725 C 2983.001442 609.20834 2970.149465 397.688966 2970.149465 397.688966 L 2960.270532 373.978346 L 2957.297488 326.533652 L 1075.267103 313.681604 L 1079.223358 362.111309 C 1079.223358 362.111309 1080.323618 373.907988 1078.240146 383.87536 C 1076.882378 390.348289 1046.871023 744.928777 919.100367 774.291484 C 801.208645 799.7376 445.379776 828.467086 375.431312 697.226104 C 325.240714 563.991647 308.479301 427.614537 312.412147 376.206346 C 316.368402 324.798156 315.151093 249.444819 315.151093 249.444819 C 315.151093 249.444819 190.587579 252.376399 180.708646 258.309917 C 170.829713 264.266888 155.004692 264.266888 150.088635 293.911027 C 145.125759 323.555166 150.088635 335.422203 150.088635 335.422203 C 150.088635 335.422203 88.778385 347.312692 71.993563 376.956831 C 55.185331 406.60097 12.696555 466.921164 12.696555 484.698266 C 12.696555 527.382074 1.061887 605.737349 13.000882 643.12086 C 20.889982 667.839944 71.993563 696.21764 71.993563 696.21764 C 71.993563 696.21764 57.151753 930.462624 155.004692 983.348331 Z M 155.004692 983.348331 " stroke="#231f20" stroke-width="5" stroke-opacity="1" stroke-miterlimit="2.613"/></g><g clip-path="url(#f5a75f4854)"><path fill="#312f30" d="M 628.214844 400.824219 C 597.234375 400.824219 572.117188 425.898438 572.117188 456.816406 C 572.117188 487.738281 597.234375 512.808594 628.214844 512.808594 C 659.1875 512.808594 684.308594 487.738281 684.308594 456.816406 C 684.308594 425.898438 659.1875 400.824219 628.214844 400.824219 Z M 628.214844 416.039062 C 605.652344 416.039062 587.363281 434.304688 587.363281 456.816406 C 587.363281 479.332031 605.652344 497.589844 628.214844 497.589844 C 650.773438 497.589844 669.0625 479.332031 669.0625 456.816406 C 669.0625 434.304688 650.773438 416.039062 628.214844 416.039062 Z M 628.214844 451.472656 C 625.253906 451.472656 622.855469 453.867188 622.855469 456.816406 C 622.855469 459.769531 625.253906 462.164062 628.214844 462.164062 C 631.164062 462.164062 633.566406 459.769531 633.566406 456.816406 C 633.566406 453.867188 631.164062 451.472656 628.214844 451.472656 Z M 665.4375 461.882812 L 639.925781 463.113281 L 652.890625 485.078125 C 652.890625 485.078125 663.4375 477.113281 665.4375 461.882812 Z M 603.484375 428.570312 L 616.492188 450.511719 L 590.988281 451.792969 C 590.988281 451.792969 591.84375 438.625 603.484375 428.570312 Z M 651.898438 427.707031 L 639.683594 450.09375 L 665.214844 450.464844 C 665.214844 450.464844 663.898438 437.335938 651.898438 427.707031 Z M 591.175781 463.199219 L 616.714844 463.523438 L 604.546875 485.929688 C 604.546875 485.929688 593.71875 478.351562 591.175781 463.199219 Z M 641.40625 491.933594 L 628.21875 470.105469 L 614.996094 491.910156 C 614.996094 491.910156 627.019531 497.40625 641.40625 491.933594 Z M 641.40625 421.699219 L 628.21875 443.527344 L 614.996094 421.726562 C 614.996094 421.726562 627.019531 416.230469 641.40625 421.699219 Z M 628.214844 418.570312 C 607.050781 418.570312 589.894531 435.695312 589.894531 456.816406 C 589.894531 477.941406 607.050781 495.066406 628.214844 495.066406 C 649.371094 495.066406 666.527344 477.941406 666.527344 456.816406 C 666.527344 435.695312 649.371094 418.570312 628.214844 418.570312 " fill-opacity="1" fill-rule="evenodd"/></g><path fill="#312f30" d="M 187.339844 398.480469 C 156.367188 398.480469 131.246094 423.546875 131.246094 454.472656 C 131.246094 485.390625 156.367188 510.464844 187.339844 510.464844 C 218.320312 510.464844 243.433594 485.390625 243.433594 454.472656 C 243.433594 423.546875 218.320312 398.480469 187.339844 398.480469 Z M 187.339844 413.699219 C 164.78125 413.699219 146.492188 431.953125 146.492188 454.472656 C 146.492188 476.984375 164.78125 495.242188 187.339844 495.242188 C 209.898438 495.242188 228.191406 476.984375 228.191406 454.472656 C 228.191406 431.953125 209.898438 413.699219 187.339844 413.699219 Z M 187.339844 449.125 C 184.382812 449.125 181.988281 451.519531 181.988281 454.472656 C 181.988281 457.421875 184.382812 459.8125 187.339844 459.8125 C 190.300781 459.8125 192.699219 457.421875 192.699219 454.472656 C 192.699219 451.519531 190.300781 449.125 187.339844 449.125 Z M 224.566406 459.535156 L 199.058594 460.765625 L 212.019531 482.730469 C 212.019531 482.730469 222.5625 474.773438 224.566406 459.535156 Z M 162.617188 426.222656 L 175.621094 448.160156 L 150.117188 449.445312 C 150.117188 449.445312 150.96875 436.273438 162.617188 426.222656 Z M 211.027344 425.359375 L 198.820312 447.746094 L 224.351562 448.121094 C 224.351562 448.121094 223.027344 434.988281 211.027344 425.359375 Z M 150.3125 460.847656 L 175.84375 461.175781 L 163.671875 483.582031 C 163.671875 483.582031 152.847656 476 150.3125 460.847656 Z M 200.53125 489.585938 L 187.355469 467.757812 L 174.128906 489.5625 C 174.128906 489.5625 186.148438 495.058594 200.53125 489.585938 Z M 200.53125 419.351562 L 187.355469 441.179688 L 174.121094 419.378906 C 174.121094 419.378906 186.148438 413.878906 200.53125 419.351562 Z M 187.339844 416.222656 C 166.183594 416.222656 149.027344 433.347656 149.027344 454.472656 C 149.027344 475.59375 166.183594 492.714844 187.339844 492.714844 C 208.5 492.714844 225.660156 475.59375 225.660156 454.472656 C 225.660156 433.347656 208.5 416.222656 187.339844 416.222656 " fill-opacity="1" fill-rule="evenodd"/></svg>