<svg xmlns="http://www.w3.org/2000/svg" viewBox="0 0 100 100"><path d="M50 84.789A34.193 34.193 0 1 1 84.193 50.6 34.232 34.232 0 0 1 50 84.789zm0-64.47A30.278 30.278 0 1 0 80.277 50.6 30.311 30.311 0 0 0 50 20.319z"/><path d="M68.981 67.268a5.381 5.381 0 0 0-3.02-3.18L65.93 37.1a5.4 5.4 0 1 0-4.143 0v9.666h-9.719l-.011-9.666a5.4 5.4 0 1 0-4.143 0v9.666h-9.878l.011-9.666a5.4 5.4 0 1 0-4.143 0l-.032 26.991a5.4 5.4 0 1 0 4.143 0l.016-13.28h9.9l.015 2.474v10.803a5.4 5.4 0 0 0 2.077 10.4 5.4 5.4 0 0 0 2.066-10.4l-.015-13.28H61.8l.015 2.474v10.806a5.4 5.4 0 0 0 2.077 10.4 5.4 5.4 0 0 0 5.086-7.215zm-21.2-35.155a2.236 2.236 0 1 1 2.236 2.236 2.238 2.238 0 0 1-2.24-2.236zm-14.065 0a2.236 2.236 0 1 1 2.236 2.236 2.238 2.238 0 0 1-2.24-2.236zm4.471 36.958a2.235 2.235 0 1 1-2.235-2.236 2.238 2.238 0 0 1 2.231 2.236zm14.065 0a2.235 2.235 0 1 1-2.235-2.236 2.238 2.238 0 0 1 2.231 2.236zm9.4-36.958a2.236 2.236 0 1 1 2.235 2.236 2.238 2.238 0 0 1-2.237-2.236zm2.235 39.194a2.236 2.236 0 1 1 2.236-2.236 2.239 2.239 0 0 1-2.238 2.236z"/></svg>