<svg xmlns="http://www.w3.org/2000/svg" xmlns:xlink="http://www.w3.org/1999/xlink" width="1024" zoomAndPan="magnify" viewBox="0 0 768 767.999994" height="1024" preserveAspectRatio="xMidYMid meet" version="1.0"><defs><clipPath id="85263253f9"><path d="M 28.5625 40.9375 L 739.5625 40.9375 L 739.5625 649 L 28.5625 649 Z M 28.5625 40.9375 " clip-rule="nonzero"/></clipPath><clipPath id="45966d0331"><path d="M 172 511 L 596 511 L 596 751.9375 L 172 751.9375 Z M 172 511 " clip-rule="nonzero"/></clipPath></defs><g clip-path="url(#85263253f9)"><path fill="#d9d9d9" d="M 133.144531 648.265625 C 152.46875 600.335938 181.683594 558.796875 218.832031 526.785156 C 241.242188 507.46875 265.644531 492.40625 291.398438 481.828125 C 252.296875 453.351562 226.8125 407.242188 226.8125 355.269531 C 226.8125 268.96875 297.023438 198.757812 383.324219 198.757812 C 469.625 198.757812 539.839844 268.96875 539.839844 355.269531 C 539.839844 407.078125 514.519531 453.0625 475.625 481.566406 C 507.097656 494.316406 536.5625 513.59375 562.371094 538.753906 C 593.269531 568.875 617.96875 606.296875 634.945312 648.296875 C 699.5625 583.929688 739.5625 494.855469 739.5625 396.4375 C 739.5625 200.101562 580.398438 40.9375 384.0625 40.9375 C 187.726562 40.9375 28.5625 200.101562 28.5625 396.4375 C 28.5625 494.835938 68.546875 583.894531 133.144531 648.265625 " fill-opacity="1" fill-rule="nonzero"/></g><path fill="#d9d9d9" d="M 491.578125 355.269531 C 491.578125 295.582031 443.015625 247.015625 383.324219 247.015625 C 323.632812 247.015625 275.074219 295.582031 275.074219 355.269531 C 275.074219 414.960938 323.632812 463.527344 383.324219 463.527344 C 443.015625 463.527344 491.578125 414.960938 491.578125 355.269531 " fill-opacity="1" fill-rule="nonzero"/><g clip-path="url(#45966d0331)"><path fill="#d9d9d9" d="M 528.6875 573.308594 C 487.980469 533.636719 436.621094 511.785156 384.070312 511.785156 C 335.714844 511.785156 289.46875 529.613281 250.335938 563.34375 C 215.132812 593.675781 188.304688 634.460938 172.148438 681.890625 C 231.328125 725.894531 304.648438 751.9375 384.0625 751.9375 C 463.472656 751.9375 536.796875 725.894531 595.976562 681.890625 C 581.578125 639.71875 558.507812 602.382812 528.6875 573.308594 " fill-opacity="1" fill-rule="nonzero"/></g></svg>